<svg width="84" height="75" viewBox="0 0 84 75" fill="none" xmlns="http://www.w3.org/2000/svg">
<path fill-rule="evenodd" clip-rule="evenodd" d="M6.02408 0C2.69707 0 0 2.68629 0 5.99999V54.9999C0 58.3136 2.69707 60.9999 6.02408 60.9999H47.9886C47.4695 59.4268 47.1887 57.7461 47.1887 55.9999C47.1887 47.1634 54.3809 40 63.2529 40C64.0125 40 64.7598 40.0525 65.4913 40.154C63.1448 37.2309 57.727 31.9999 52.7108 31.9999C47.49 31.9999 38.4873 41.3332 34.6386 45.9999C31.7939 43.3332 25.3013 37.8999 22.0884 37.4999C18.9698 37.1117 7.7158 48.3125 2.00803 54.4572V5.99999C2.00803 3.79086 3.80607 2 6.02408 2H70.2809C72.4989 2 74.297 3.79086 74.297 5.99999V40.5H76.305V5.99999C76.305 2.68629 73.6079 0 70.2809 0H6.02408ZM30.1204 17.5C30.1204 20.7216 27.4983 23.3333 24.2637 23.3333C21.0291 23.3333 18.407 20.7216 18.407 17.5C18.407 14.2783 21.0291 11.6667 24.2637 11.6667C27.4983 11.6667 30.1204 14.2783 30.1204 17.5ZM67.269 75C76.141 75 83.3332 67.8366 83.3332 59C83.3332 50.1635 76.141 43 67.269 43C58.397 43 51.2048 50.1635 51.2048 59C51.2048 67.8366 58.397 75 67.269 75ZM66.2651 51.0001H68.2731V58.0003H75.3012V60.0003H68.2731V67.0001H66.2651V60.0003H59.2369V58.0003H66.2651V51.0001Z" fill="#219EBC"/>
</svg>
