<svg width="20.000000" height="20.000000" viewBox="0 0 20 20" fill="none" xmlns="http://www.w3.org/2000/svg" xmlns:xlink="http://www.w3.org/1999/xlink">
	<desc>
			Created with Pixso.
	</desc>
	<defs/>
	<path id="Union" d="M6.53979 3.46155C6.53979 1.5498 8.0896 0 10.0013 0C11.9131 0 13.4629 1.5498 13.4629 3.46155C13.4629 3.63281 13.4504 3.80127 13.4264 3.96588C17.9835 7.50061 19.1725 12.0947 19.2302 14.6154L20 14.6154L20 20L0 20L0 14.6154L0.77124 14.6154C0.828979 12.0944 2.01819 7.49994 6.57617 3.96503C6.55225 3.80066 6.53979 3.63257 6.53979 3.46155ZM1.92725 14.6154L18.0742 14.6154C18.0071 12.4894 16.9597 8.49146 12.9703 5.24219C12.3651 6.24927 11.2618 6.9231 10.0013 6.9231C8.74048 6.9231 7.63708 6.24896 7.03186 5.24152C3.04199 8.49091 1.99438 12.4893 1.92725 14.6154ZM10.0013 1.15387C8.72681 1.15387 7.6936 2.18701 7.6936 3.46155C7.6936 4.73602 8.72681 5.76923 10.0013 5.76923C11.2759 5.76923 12.3091 4.73602 12.3091 3.46155C12.3091 2.18701 11.2759 1.15387 10.0013 1.15387ZM1.13208 15.7692L1.13208 18.8462L18.8679 18.8462L18.8679 15.7692L1.13208 15.7692Z" clip-rule="evenodd" fill="#FFFFFF" fill-opacity="1.000000" fill-rule="evenodd"/>
</svg>
