<svg width="360" height="150" viewBox="0 0 360 150" fill="none" xmlns="http://www.w3.org/2000/svg">
    <rect width="360" height="150" rx="11" fill="#219EBC"/>
    <path fill-rule="evenodd" clip-rule="evenodd" d="M121.577 3.02567C121.946 1.91904 122.325 0.904077 122.69 0H125.944C125.472 1.08169 124.939 2.42615 124.423 3.97436C124.169 4.73501 124.184 5.60932 124.461 6.69017C124.742 7.7866 125.263 8.9849 125.916 10.3539C126.082 10.7015 126.257 11.0597 126.436 11.4278C127.619 13.8537 129.011 16.7099 129.483 19.7719C129.816 21.9394 128.996 23.9445 127.648 25.6316C126.306 27.3116 124.362 28.7859 122.163 30.0006C117.768 32.4275 112.02 34 107 34C100.703 34 95.4641 31.8852 90.4416 29.8576C89.3124 29.4017 88.1941 28.9502 87.0771 28.5282C80.949 26.2127 74.4663 24.5599 65.3818 26.9506C60.7786 28.162 57.5687 29.7425 55.1389 31.6299C52.7122 33.515 50.9842 35.7674 49.4202 38.4442C48.3343 40.3028 47.3623 42.2984 46.2863 44.5077L46.2863 44.5078C45.7823 45.5425 45.2556 46.6241 44.6836 47.7604C42.9138 51.2763 40.7787 55.1671 37.7131 59.3823C35.9335 61.8293 34.103 63.7126 32.2585 65.097C32.3664 67.2578 32.2873 69.6164 31.99 72.1732C30.9191 81.3827 24.6909 88.299 17.7892 93.0597C11.6596 97.2878 4.80975 99.9526 0 101.108V98.0152C4.41756 96.86 10.5633 94.3996 16.0858 90.5902C22.6424 86.0676 28.0809 79.8172 29.0101 71.8267C29.2153 70.0613 29.3086 68.4184 29.306 66.8935C28.3739 67.3328 27.4431 67.654 26.5184 67.8655C22.765 68.7238 19.3351 67.7215 16.6642 65.851C14.0172 63.9971 12.061 61.2584 11.1744 58.4874C10.2983 55.7493 10.3906 52.657 12.3978 50.4826C15.9988 46.5815 21.7985 46.39 26.1606 50.1085C28.9023 52.4456 31.021 56.2414 31.8833 61.5068C32.9994 60.4778 34.1391 59.196 35.2869 57.6177C38.2213 53.5829 40.2738 49.8487 42.0039 46.4115C42.5308 45.3647 43.0346 44.3307 43.528 43.318L43.5281 43.3177C44.6328 41.0502 45.6855 38.8894 46.8299 36.9308C48.5159 34.0451 50.4753 31.4538 53.2986 29.2607C56.1188 27.07 59.7215 25.338 64.6183 24.0494C74.5337 21.4401 81.6941 23.2873 88.1375 25.7218C89.3781 26.1906 90.5782 26.6732 91.7567 27.1471L91.7568 27.1471C96.7399 29.1509 101.338 31 107 31C111.48 31 116.732 29.5726 120.712 27.3744C122.7 26.2767 124.288 25.0321 125.305 23.759C126.316 22.493 126.684 21.3106 126.517 20.2281C126.121 17.6518 124.953 15.2459 123.76 12.7872L123.76 12.787C123.576 12.4083 123.391 12.0282 123.209 11.6461C122.55 10.2651 121.914 8.83843 121.555 7.43486C121.191 6.01571 121.081 4.51502 121.577 3.02567ZM29.1378 63.586C28.5537 57.9815 26.524 54.3603 24.2144 52.3915C20.9515 49.61 17.0012 49.9185 14.6022 52.5174C13.6094 53.593 13.335 55.3957 14.0317 57.5731C14.7178 59.7177 16.274 61.9151 18.3852 63.3937C20.4725 64.8555 23.0467 65.582 25.8496 64.941C26.8905 64.703 27.9929 64.2693 29.1378 63.586Z" fill="#BC215F"/>
    <path fill-rule="evenodd" clip-rule="evenodd" d="M5.62811 77.132C3.35344 73.0619 1.26353 71.0095 0 70.198V66.7834C2.1554 67.9573 5.70473 71.1197 8.24688 75.6684C11.0727 80.7247 13.9521 88.3041 15.9749 99.227C18.3379 111.987 27.1337 117.784 36.0435 120.372C45.015 122.979 53.9095 122.25 55.8139 122.012C57.9105 121.75 62.365 121.483 66.8638 122.607C67.9678 122.883 69.0868 123.247 70.1803 123.721C74.9187 121.1 80.7318 119.59 86.115 120.005C92.6628 120.508 98.5475 121.4 104.083 124.365C109.639 127.341 114.69 132.32 119.783 140.723L119.825 140.792L119.859 140.866C121.606 144.609 121.799 147.718 121.316 150H118.211C118.7 148.493 118.876 145.893 117.174 142.207C112.283 134.154 107.597 129.651 102.667 127.01C97.7024 124.35 92.3372 123.492 85.8849 122.996C81.7438 122.677 77.2365 123.667 73.3278 125.485C75.43 126.985 77.2428 129.068 78.3927 131.943C80.6632 137.619 78.4048 143.102 74.6038 145.733C72.6949 147.055 70.3414 147.692 67.9686 147.186C65.5782 146.677 63.3835 145.055 61.7138 142.272C59.9706 139.367 59.82 136.334 60.8207 133.514C61.8024 130.748 63.8615 128.252 66.4416 126.201C66.6297 126.051 66.8211 125.904 67.0156 125.758C66.7243 125.672 66.4309 125.592 66.1362 125.518C62.135 124.518 58.0895 124.751 56.186 124.989C54.0905 125.251 44.7349 126.022 35.2065 123.253C25.6163 120.467 15.6621 114.013 13.0251 99.7733C11.0478 89.0963 8.26059 81.8423 5.62811 77.132ZM70.3165 127.125C69.6098 127.573 68.9378 128.049 68.3084 128.549C66.0134 130.374 64.3851 132.44 63.648 134.517C62.93 136.541 63.0294 138.634 64.2862 140.728C65.6165 142.945 67.1717 143.949 68.5939 144.252C70.0335 144.559 71.5551 144.195 72.8962 143.267C75.5951 141.398 77.3368 137.381 75.6073 133.057C74.4926 130.271 72.5821 128.385 70.3165 127.125Z" fill="#30BC21"/>
</svg>
