<svg width="20.000000" height="20.000000" viewBox="0 0 20 20" fill="none" xmlns="http://www.w3.org/2000/svg" xmlns:xlink="http://www.w3.org/1999/xlink">
	<desc>
			Created with Pixso.
	</desc>
	<defs/>
	<path id="Vector" d="M0 2.5C0 1.11926 1.11926 0 2.5 0L6.25 0C7.63074 0 8.75 1.11926 8.75 2.5L8.75 6.25C8.75 7.63074 7.63074 8.75 6.25 8.75L2.5 8.75C1.11926 8.75 0 7.63074 0 6.25L0 2.5ZM13.75 0C12.3693 0 11.25 1.11926 11.25 2.5L11.25 6.25C11.25 7.63074 12.3693 8.75 13.75 8.75L17.5 8.75C18.8807 8.75 20 7.63074 20 6.25L20 2.5C20 1.11926 18.8807 0 17.5 0L13.75 0ZM2.5 1L6.25 1Q6.4303 1 6.60071 1.04077Q6.71948 1.06921 6.83362 1.11743Q6.95422 1.16858 7.06274 1.23853Q7.19592 1.32458 7.31067 1.43933Q7.42542 1.55408 7.51147 1.68726Q7.58154 1.79578 7.63257 1.91638Q7.68079 2.03052 7.70923 2.14929Q7.75 2.3197 7.75 2.5L7.75 6.25Q7.75 6.4303 7.70923 6.60071Q7.68079 6.71948 7.63257 6.83362Q7.58142 6.95422 7.51147 7.06274Q7.42542 7.19592 7.31067 7.31067Q7.19592 7.42542 7.06274 7.51147Q6.95422 7.58142 6.83362 7.63257Q6.71948 7.68079 6.60071 7.70923Q6.4303 7.75 6.25 7.75L2.5 7.75Q2.3197 7.75 2.14929 7.70923Q2.03052 7.68079 1.91638 7.63257Q1.79578 7.58154 1.68726 7.51147Q1.55408 7.42542 1.43933 7.31067Q1.32458 7.19592 1.23853 7.06274Q1.16858 6.95422 1.11743 6.83362Q1.06921 6.71948 1.04077 6.60071Q1 6.4303 1 6.25L1 2.5Q1 2.3197 1.04077 2.14929Q1.06921 2.03052 1.11743 1.91638Q1.16846 1.79578 1.23853 1.68726Q1.32458 1.55408 1.43933 1.43933Q1.55408 1.32458 1.68738 1.23853Q1.79578 1.16846 1.91638 1.11743Q2.03052 1.06921 2.14929 1.04077Q2.3197 1 2.5 1ZM13.75 1L17.5 1Q17.6803 1 17.8507 1.04077Q17.9695 1.06921 18.0836 1.11743Q18.2042 1.16846 18.3126 1.23853Q18.4459 1.32458 18.5607 1.43933Q18.6754 1.55408 18.7615 1.68738Q18.8315 1.79578 18.8826 1.91638Q18.9308 2.03052 18.9592 2.14929Q19 2.31982 19 2.5L19 6.25Q19 6.43018 18.9592 6.60071Q18.9308 6.71948 18.8826 6.83362Q18.8314 6.95422 18.7615 7.06274Q18.6754 7.19592 18.5607 7.31067Q18.4459 7.42542 18.3126 7.51147Q18.2042 7.58154 18.0836 7.63257Q17.9695 7.68079 17.8507 7.70923Q17.6803 7.75 17.5 7.75L13.75 7.75Q13.5697 7.75 13.3993 7.70923Q13.2805 7.68079 13.1664 7.63257Q13.0458 7.58154 12.9374 7.51147Q12.8041 7.42542 12.6893 7.31067Q12.5746 7.19592 12.4885 7.06274Q12.4186 6.95422 12.3674 6.83362Q12.3192 6.71948 12.2908 6.60071Q12.25 6.4303 12.25 6.25L12.25 2.5Q12.25 2.3197 12.2908 2.14929Q12.3192 2.03052 12.3674 1.91638Q12.4186 1.79578 12.4885 1.68726Q12.5746 1.55408 12.6893 1.43933Q12.8041 1.32458 12.9373 1.23853Q13.0458 1.16858 13.1664 1.11743Q13.2805 1.06921 13.3993 1.04077Q13.5697 1 13.75 1ZM0 13.75C0 12.3693 1.11926 11.25 2.5 11.25L6.25 11.25C7.63074 11.25 8.75 12.3693 8.75 13.75L8.75 17.5C8.75 18.8807 7.63074 20 6.25 20L2.5 20C1.11926 20 0 18.8807 0 17.5L0 13.75ZM11.25 13.75C11.25 12.3693 12.3693 11.25 13.75 11.25L17.5 11.25C18.8807 11.25 20 12.3693 20 13.75L20 17.5C20 18.8807 18.8807 20 17.5 20L13.75 20C12.3693 20 11.25 18.8807 11.25 17.5L11.25 13.75ZM2.5 12.25L6.25 12.25Q6.4303 12.25 6.60071 12.2908Q6.71948 12.3192 6.83362 12.3674Q6.95422 12.4186 7.06274 12.4885Q7.19592 12.5746 7.31067 12.6893Q7.42542 12.8041 7.51147 12.9373Q7.58142 13.0457 7.63257 13.1664Q7.68079 13.2805 7.70923 13.3993Q7.75 13.5697 7.75 13.75L7.75 17.5Q7.75 17.6803 7.70923 17.8507Q7.68079 17.9695 7.63257 18.0836Q7.58154 18.2042 7.51147 18.3126Q7.42542 18.4459 7.31067 18.5607Q7.19592 18.6754 7.06274 18.7615Q6.95422 18.8315 6.83362 18.8826Q6.71948 18.9308 6.60071 18.9592Q6.43018 19 6.25 19L2.5 19Q2.31982 19 2.14929 18.9592Q2.03052 18.9308 1.91638 18.8826Q1.79578 18.8314 1.68726 18.7615Q1.55408 18.6754 1.43933 18.5607Q1.32458 18.4459 1.23853 18.3126Q1.16846 18.2042 1.11743 18.0836Q1.06921 17.9695 1.04077 17.8507Q1 17.6803 1 17.5L1 13.75Q1 13.5697 1.04077 13.3993Q1.06921 13.2805 1.11743 13.1664Q1.16846 13.0458 1.23853 12.9374Q1.32458 12.8041 1.43933 12.6893Q1.55408 12.5746 1.68738 12.4885Q1.79578 12.4185 1.91638 12.3674Q2.03052 12.3192 2.14929 12.2908Q2.3197 12.25 2.5 12.25ZM13.75 12.25L17.5 12.25Q17.6803 12.25 17.8507 12.2908Q17.9695 12.3192 18.0836 12.3674Q18.2042 12.4185 18.3126 12.4885Q18.4459 12.5746 18.5607 12.6893Q18.6754 12.8041 18.7615 12.9373Q18.8314 13.0458 18.8826 13.1664Q18.9308 13.2805 18.9592 13.3993Q19 13.5698 19 13.75L19 17.5Q19 17.6802 18.9592 17.8507Q18.9308 17.9695 18.8826 18.0836Q18.8315 18.2042 18.7615 18.3126Q18.6754 18.4459 18.5607 18.5607Q18.4459 18.6754 18.3126 18.7615Q18.2042 18.8315 18.0836 18.8826Q17.9695 18.9308 17.8507 18.9592Q17.6803 19 17.5 19L13.75 19Q13.5698 19 13.3993 18.9592Q13.2805 18.9308 13.1664 18.8826Q13.0458 18.8315 12.9374 18.7615Q12.8041 18.6754 12.6893 18.5607Q12.5746 18.4459 12.4885 18.3126Q12.4185 18.2042 12.3674 18.0836Q12.3192 17.9695 12.2908 17.8507Q12.25 17.6803 12.25 17.5L12.25 13.75Q12.25 13.5697 12.2908 13.3993Q12.3192 13.2805 12.3674 13.1664Q12.4185 13.0458 12.4885 12.9373Q12.5746 12.8041 12.6893 12.6893Q12.8041 12.5746 12.9373 12.4885Q13.0458 12.4186 13.1664 12.3674Q13.2805 12.3192 13.3993 12.2908Q13.5697 12.25 13.75 12.25Z" fill="#FFFFFF" fill-opacity="1.000000" fill-rule="evenodd"/>
</svg>
