<svg width="15.000000" height="15.000000" viewBox="0 0 15 15" fill="none" xmlns="http://www.w3.org/2000/svg" xmlns:xlink="http://www.w3.org/1999/xlink">
	<desc>
			Created with Pixso.
	</desc>
	<defs/>
	<path id="Shape" d="M10.4538 0.166504C10.99 -0.0554199 11.5924 -0.0554199 12.1286 0.166504C12.3693 0.266357 12.5653 0.411865 12.7432 0.566895C12.9111 0.713623 13.1004 0.902832 13.3163 1.11865L13.8813 1.68384C14.0972 1.89966 14.2865 2.08887 14.433 2.25684C14.5881 2.43457 14.7337 2.63086 14.8334 2.87134C15.0555 3.40771 15.0555 4.01001 14.8334 4.54614C14.7337 4.78687 14.5881 4.98291 14.433 5.16089C14.2865 5.32886 14.0972 5.51807 13.8814 5.73389L7.29208 12.3232C5.57809 14.0371 3.25345 15 0.829529 15C0.371399 15 0 14.6287 0 14.1704C0 11.7466 0.962891 9.42188 2.67688 7.70801L9.26611 1.11865C9.48196 0.902832 9.67123 0.713623 9.8392 0.566895C10.017 0.411865 10.2131 0.266357 10.4538 0.166504ZM11.5257 1.62207C11.3755 1.56006 11.2068 1.56006 11.0567 1.62207C11.04 1.62915 10.9921 1.6521 10.8748 1.75439C10.7523 1.86133 10.6011 2.01172 10.3628 2.25L9.95444 2.65845L12.3415 5.04565L12.7499 4.63721C12.9882 4.39893 13.1388 4.2478 13.2457 4.12524C13.3479 4.00781 13.3709 3.95996 13.3778 3.94336C13.44 3.79321 13.44 3.62451 13.3778 3.47437C13.3709 3.45776 13.3479 3.40967 13.2457 3.29248C13.1388 3.16992 12.9882 3.0188 12.7499 2.78052L12.2196 2.25C11.9812 2.01172 11.8301 1.86133 11.7075 1.75439C11.5903 1.6521 11.5424 1.62915 11.5257 1.62207ZM11.2275 6.15967L8.84039 3.77246L3.79095 8.82202C2.55917 10.0537 1.79611 11.6665 1.61655 13.3835C3.33337 13.2039 4.94626 12.4409 6.17804 11.209L11.2275 6.15967Z" fill="#1E1E1E" fill-opacity="1.000000" fill-rule="evenodd"/>
</svg>
