<svg width="15.000000" height="15.000000" viewBox="0 0 15 15" fill="none" xmlns="http://www.w3.org/2000/svg" xmlns:xlink="http://www.w3.org/1999/xlink">
	<desc>
			Created with Pixso.
	</desc>
	<defs/>
	<path id="Shape" d="M10.5495 2.79077L14.3182 2.79077C14.6947 2.79077 15 3.10303 15 3.48828C15 3.87354 14.6947 4.18604 14.3182 4.18604L13.5736 4.18604L12.8941 11.3704C12.8458 11.8818 12.8057 12.3054 12.7463 12.6501C12.6843 13.0095 12.5934 13.3369 12.4157 13.6411C12.1386 14.1155 11.7301 14.4949 11.2421 14.7314C10.929 14.8831 10.6017 14.9443 10.2463 14.9727C9.90521 15 9.48924 15 8.98718 15L6.01289 15C5.51083 15 5.09479 15 4.75374 14.9727C4.39827 14.9443 4.07095 14.8831 3.75793 14.7314C3.26987 14.4949 2.86139 14.1155 2.58432 13.6411C2.40662 13.3369 2.31567 13.0095 2.25372 12.6501C2.19431 12.3054 2.15424 11.8818 2.1059 11.3704L1.42642 4.18604L0.681824 4.18604C0.305267 4.18604 0 3.87354 0 3.48828C0 3.10303 0.305267 2.79077 0.681824 2.79077L4.45055 2.79077C4.62015 1.22095 5.92073 0 7.5 0C9.07927 0 10.3799 1.22095 10.5495 2.79077ZM5.10602 4.18604L2.79645 4.18604L3.46063 11.2087C3.51221 11.7542 3.54758 12.1233 3.59665 12.4077C3.64423 12.6838 3.69653 12.8254 3.75479 12.9253C3.89331 13.1624 4.09755 13.3521 4.34158 13.4705C4.44418 13.52 4.58702 13.5598 4.86015 13.5815C5.14171 13.6042 5.5041 13.6047 6.03949 13.6047L8.96051 13.6047C9.4959 13.6047 9.85829 13.6042 10.1398 13.5815C10.413 13.5598 10.5558 13.52 10.6584 13.4705C10.9025 13.3521 11.1067 13.1624 11.2452 12.9253C11.3035 12.8254 11.3558 12.6838 11.4034 12.4077C11.4524 12.1233 11.4878 11.7542 11.5394 11.2087L12.2036 4.18604L9.89398 4.18604C9.89145 4.18604 9.8889 4.18604 9.88637 4.18604L5.11363 4.18604C5.1111 4.18604 5.10855 4.18604 5.10602 4.18604ZM9.17044 2.79077C9.0125 1.99463 8.32463 1.39526 7.5 1.39526C6.67537 1.39526 5.9875 1.99463 5.82956 2.79077L9.17044 2.79077Z" fill="#1E1E1E" fill-opacity="1.000000" fill-rule="evenodd"/>
</svg>
