<svg width="15" height="15" viewBox="0 0 15 15" fill="none" xmlns="http://www.w3.org/2000/svg">
<path fill-rule="evenodd" clip-rule="evenodd" d="M10.5495 2.79066H14.3182C14.6947 2.79066 15 3.10302 15 3.48834C15 3.87366 14.6947 4.18602 14.3182 4.18602H13.5736L12.8941 11.3703C12.8458 11.8817 12.8057 12.3054 12.7463 12.6502C12.6843 13.0095 12.5934 13.337 12.4157 13.6412C12.1386 14.1155 11.7301 14.4949 11.2421 14.7315C10.9291 14.8831 10.6017 14.9442 10.2463 14.9727C9.90521 15 9.48925 15 8.98718 15H6.0129C5.51083 15 5.09479 15 4.75374 14.9727C4.39827 14.9442 4.07095 14.8831 3.75793 14.7315C3.26986 14.4949 2.8614 14.1155 2.58432 13.6412C2.40661 13.337 2.31567 13.0095 2.25373 12.6502C2.19431 12.3054 2.15424 11.8817 2.10589 11.3703L1.42643 4.18602H0.681818C0.30526 4.18602 0 3.87366 0 3.48834C0 3.10302 0.30526 2.79066 0.681818 2.79066H4.45055C4.62015 1.22093 5.92073 0 7.5 0C9.07927 0 10.3798 1.22093 10.5495 2.79066ZM5.10602 4.18602H2.79644L3.46062 11.2089C3.51219 11.7541 3.54758 12.1232 3.59664 12.4078C3.64423 12.6839 3.69653 12.8255 3.75478 12.9252C3.89332 13.1624 4.09755 13.3521 4.34159 13.4704C4.44419 13.5201 4.58702 13.5597 4.86016 13.5816C5.1417 13.6042 5.5041 13.6046 6.03948 13.6046H8.96052C9.4959 13.6046 9.8583 13.6042 10.1398 13.5816C10.413 13.5597 10.5558 13.5201 10.6584 13.4704C10.9024 13.3521 11.1067 13.1624 11.2452 12.9252C11.3035 12.8255 11.3558 12.6839 11.4034 12.4078C11.4524 12.1232 11.4878 11.7541 11.5394 11.2088L12.2036 4.18602H9.89398C9.89144 4.18604 9.8889 4.18606 9.88636 4.18606H5.11364C5.1111 4.18606 5.10856 4.18604 5.10602 4.18602ZM9.17044 2.79066C9.01249 1.99455 8.32463 1.39535 7.5 1.39535C6.67537 1.39535 5.98751 1.99455 5.82956 2.79066H9.17044Z" fill="#1E1E1E"/>
</svg>
