<svg version="1.2" xmlns="http://www.w3.org/2000/svg" viewBox="0 0 20 15" width="20" height="15">
	<title>email-svg</title>
	<style>
		.s0 { fill: #bc215f } 
	</style>
	<path id="Layer" fill-rule="evenodd" class="s0" d="m1.6 0.3c0.7-0.3 1.5-0.3 3.2-0.3h10.4c1.7 0 2.5 0 3.2 0.3 0.5 0.2 1 0.6 1.3 1.1 0.3 0.6 0.3 1.4 0.3 2.8v6.6c0 1.4 0 2.2-0.3 2.8-0.3 0.5-0.8 0.9-1.3 1.1-0.7 0.3-1.5 0.3-3.2 0.3h-10.4c-1.7 0-2.5 0-3.2-0.3-0.5-0.2-1-0.6-1.3-1.1-0.3-0.6-0.3-1.4-0.3-2.8v-6.6c0-1.4 0-2.2 0.3-2.8 0.3-0.5 0.8-0.9 1.3-1.1zm3 2.5c-0.4-0.3-1-0.2-1.4 0.2-0.3 0.4-0.3 0.9 0.2 1.2l6 4.2c0.3 0.3 0.9 0.3 1.2 0l6-4.2c0.5-0.3 0.5-0.8 0.2-1.2-0.4-0.4-1-0.5-1.4-0.2l-5.4 3.8z"/>
</svg>