<svg width="20" height="15" viewBox="0 0 20 15" fill="none" xmlns="http://www.w3.org/2000/svg">
<path fill-rule="evenodd" clip-rule="evenodd" d="M0.32698 1.44532C0 2.01156 0 2.7528 0 4.23529V10.7647C0 12.2472 0 12.9884 0.32698 13.5547C0.614601 14.0528 1.07354 14.4577 1.63803 14.7115C2.27976 15 3.11984 15 4.8 15H15.2C16.8802 15 17.7202 15 18.362 14.7115C18.9265 14.4577 19.3854 14.0528 19.673 13.5547C20 12.9884 20 12.2472 20 10.7647V4.23529C20 2.7528 20 2.01156 19.673 1.44532C19.3854 0.947243 18.9265 0.542295 18.362 0.288512C17.7202 0 16.8802 0 15.2 0H4.8C3.11984 0 2.27976 0 1.63803 0.288512C1.07354 0.542295 0.614601 0.947243 0.32698 1.44532ZM4.6207 2.83761C4.18769 2.53513 3.55876 2.59966 3.21595 2.98173C2.87315 3.36381 2.94628 3.91874 3.3793 4.22122L9.3793 8.41239C9.74301 8.66646 10.257 8.66646 10.6207 8.41239L16.6207 4.22122C17.0537 3.91874 17.1269 3.36381 16.784 2.98173C16.4412 2.59966 15.8123 2.53513 15.3793 2.83761L10 6.5952L4.6207 2.83761Z" fill="#219EBC"/>
</svg>
