<svg width="300" height="120" viewBox="0 0 300 120" fill="none" xmlns="http://www.w3.org/2000/svg">
<rect x="0.5" y="0.5" width="299" height="119" rx="4.5" fill="#219EBC" stroke="#1E1E1E"/>
<path d="M129.854 66.16C128.979 66.16 128.174 66.016 127.438 65.728C126.702 65.44 126.062 65.04 125.518 64.528C124.974 64.0053 124.553 63.3973 124.254 62.704C123.955 62 123.806 61.232 123.806 60.4C123.806 59.568 123.955 58.8053 124.254 58.112C124.553 57.408 124.974 56.8 125.518 56.288C126.062 55.7653 126.702 55.36 127.438 55.072C128.174 54.784 128.974 54.64 129.838 54.64C130.713 54.64 131.513 54.784 132.238 55.072C132.974 55.36 133.614 55.7653 134.158 56.288C134.702 56.8 135.123 57.408 135.422 58.112C135.721 58.8053 135.87 59.568 135.87 60.4C135.87 61.232 135.721 62 135.422 62.704C135.123 63.408 134.702 64.016 134.158 64.528C133.614 65.04 132.974 65.44 132.238 65.728C131.513 66.016 130.718 66.16 129.854 66.16ZM129.838 64.336C130.403 64.336 130.926 64.24 131.406 64.048C131.886 63.856 132.302 63.584 132.654 63.232C133.006 62.8693 133.278 62.4533 133.47 61.984C133.673 61.504 133.774 60.976 133.774 60.4C133.774 59.824 133.673 59.3013 133.47 58.832C133.278 58.352 133.006 57.936 132.654 57.584C132.302 57.2213 131.886 56.944 131.406 56.752C130.926 56.56 130.403 56.464 129.838 56.464C129.273 56.464 128.75 56.56 128.27 56.752C127.801 56.944 127.385 57.2213 127.022 57.584C126.67 57.936 126.393 58.352 126.19 58.832C125.998 59.3013 125.902 59.824 125.902 60.4C125.902 60.9653 125.998 61.488 126.19 61.968C126.393 62.448 126.67 62.8693 127.022 63.232C127.374 63.584 127.79 63.856 128.27 64.048C128.75 64.24 129.273 64.336 129.838 64.336ZM143.322 66.16C142.468 66.16 141.674 66.0213 140.938 65.744C140.212 65.456 139.578 65.056 139.034 64.544C138.5 64.0213 138.084 63.408 137.786 62.704C137.487 62 137.338 61.232 137.338 60.4C137.338 59.568 137.487 58.8 137.786 58.096C138.084 57.392 138.506 56.784 139.05 56.272C139.594 55.7493 140.228 55.3493 140.954 55.072C141.679 54.784 142.474 54.64 143.338 54.64C144.255 54.64 145.092 54.8 145.85 55.12C146.607 55.4293 147.247 55.8933 147.77 56.512L146.426 57.776C146.02 57.3387 145.567 57.0133 145.066 56.8C144.564 56.576 144.02 56.464 143.434 56.464C142.847 56.464 142.308 56.56 141.818 56.752C141.338 56.944 140.916 57.216 140.554 57.568C140.202 57.92 139.924 58.336 139.722 58.816C139.53 59.296 139.434 59.824 139.434 60.4C139.434 60.976 139.53 61.504 139.722 61.984C139.924 62.464 140.202 62.88 140.554 63.232C140.916 63.584 141.338 63.856 141.818 64.048C142.308 64.24 142.847 64.336 143.434 64.336C144.02 64.336 144.564 64.2293 145.066 64.016C145.567 63.792 146.02 63.456 146.426 63.008L147.77 64.288C147.247 64.896 146.607 65.36 145.85 65.68C145.092 66 144.25 66.16 143.322 66.16ZM149.717 66V54.8H151.765V66H149.717ZM162.792 54.8H164.872V66H162.792V54.8ZM157 66H154.92V54.8H157V66ZM162.952 61.2H156.824V59.424H162.952V61.2ZM173.181 58.592C174.515 58.592 175.544 58.8907 176.269 59.488C176.995 60.0853 177.357 60.9813 177.357 62.176C177.357 63.4347 176.957 64.3893 176.157 65.04C175.368 65.68 174.264 66 172.845 66H168.029V54.8H170.077V58.592H173.181ZM172.749 64.4C173.549 64.4 174.168 64.2133 174.605 63.84C175.053 63.4667 175.277 62.9227 175.277 62.208C175.277 61.504 175.059 60.992 174.621 60.672C174.184 60.3413 173.56 60.176 172.749 60.176H170.077V64.4H172.749Z" fill="white"/>
</svg>
