<svg width="20.000000" height="15.238037" viewBox="0 0 20 15.238" fill="none" xmlns="http://www.w3.org/2000/svg" xmlns:xlink="http://www.w3.org/1999/xlink">
	<desc>
			Created with Pixso.
	</desc>
	<defs/>
	<path id="Union" d="M3.57141 0C1.599 0 0 1.599 0 3.57141C0 5.54382 1.599 7.14282 3.57141 7.14282C5.30103 7.14282 6.74353 5.91333 7.07251 4.28052C7.09546 4.28394 7.1189 4.28577 7.14282 4.28577L19.5238 4.28577C19.7867 4.28577 20 4.07251 20 3.80957C20 3.54651 19.7867 3.33337 19.5238 3.33337L7.14282 3.33337L7.13501 3.33337C7.01257 1.47192 5.46387 0 3.57141 0ZM3.57141 1C2.15125 1 1 2.15125 1 3.57141C1 4.99158 2.15125 6.14282 3.57141 6.14282C4.99158 6.14282 6.14282 4.99158 6.14282 3.57141C6.14282 2.15125 4.99158 1 3.57141 1ZM20 11.6666C20 9.69421 18.401 8.09521 16.4286 8.09521C14.5361 8.09521 12.9874 9.56714 12.865 11.4286L12.8572 11.4286L0.476196 11.4286C0.213257 11.4286 0 11.6417 0 11.9048C0 12.1677 0.213257 12.381 0.476196 12.381L12.8572 12.381C12.8811 12.381 12.9045 12.3792 12.9275 12.3757C13.2565 14.0085 14.699 15.238 16.4286 15.238C18.401 15.238 20 13.639 20 11.6666ZM19 11.6666C19 10.2465 17.8488 9.09521 16.4286 9.09521C15.0084 9.09521 13.8572 10.2465 13.8572 11.6666C13.8572 13.0868 15.0084 14.238 16.4286 14.238C17.8488 14.238 19 13.0868 19 11.6666Z" clip-rule="evenodd" fill="#FFFFFF" fill-opacity="1.000000" fill-rule="evenodd"/>
</svg>
