<svg width="91" height="70" viewBox="0 0 91 70" fill="none" xmlns="http://www.w3.org/2000/svg">
<g clip-path="url(#clip0_518_50)">
<path d="M72.5571 34.8842C72.278 33.5208 71.5743 32.2608 70.5612 31.2929C69.906 28.8034 68.7836 26.3564 67.2184 24.019C66.2417 22.5581 65.1072 21.1703 63.8454 19.886C61.5036 17.506 58.7615 15.5277 55.8616 14.1277C56.2256 13.0503 56.4137 11.9242 56.4137 10.7616C56.4137 5.00336 51.7424 0.316406 46.0033 0.316406C40.2642 0.316406 35.5929 5.00336 35.5929 10.7616C35.5929 11.8634 35.7628 12.9408 36.0904 13.9694C32.966 15.4303 30.0298 17.5425 27.5424 20.1294C26.3716 21.3468 25.316 22.6616 24.3999 24.0312C22.8104 26.4051 21.682 28.8825 21.039 31.4086C18.9217 33.5329 18.406 36.7712 19.8135 39.4373C21.0329 41.7503 23.4414 43.1868 26.1046 43.1868C27.2148 43.1868 28.325 42.9251 29.32 42.426C33.7547 40.2042 38.2137 38.8042 42.5696 38.2625C43.6616 38.1286 44.7718 38.0434 45.8638 38.0129C46.9558 38.0434 48.066 38.1225 49.158 38.2625C53.5138 38.8042 57.9728 40.2042 62.4076 42.426C63.4025 42.9251 64.5127 43.1868 65.6229 43.1868C68.2801 43.1868 70.6946 41.7503 71.908 39.4373C72.642 38.0434 72.8726 36.4242 72.5571 34.8842Z" fill="black"/>
<path d="M55.0126 10.8165C55.0126 12.2408 54.685 13.5921 54.1026 14.7973C51.4272 13.6591 48.582 13.0138 45.7185 13.0138C42.9642 13.0138 40.2282 13.6104 37.6438 14.6695C37.0978 13.5008 36.7944 12.1921 36.7944 10.8165C36.7944 5.77037 40.8712 1.67993 45.9005 1.67993C50.9358 1.67993 55.0126 5.77037 55.0126 10.8165Z" fill="#219EBC"/>
<path d="M70.7978 38.8775C69.7786 40.8131 67.7584 41.927 65.6654 41.927C64.7796 41.927 63.8757 41.7262 63.0324 41.3062C58.4642 39.0175 53.8657 37.5749 49.3582 37.0149C48.6605 36.9296 47.9628 36.8627 47.2712 36.8201C46.8162 36.7896 46.3612 36.7714 45.9062 36.7592C45.427 36.7714 44.9416 36.7957 44.4624 36.8262C43.795 36.8688 43.1216 36.9357 42.4482 37.0149C37.9407 37.5749 33.3422 39.0175 28.774 41.3062C27.9307 41.7262 27.0268 41.927 26.141 41.927C24.048 41.927 22.0278 40.8131 21.0086 38.8775C19.5526 36.114 20.6689 32.7296 23.502 31.3114C29.4231 28.347 35.4716 26.4905 41.4715 25.8088C42.4664 25.6931 43.4674 25.614 44.4563 25.5653C44.9295 25.5409 45.3966 25.5288 45.8638 25.5166C45.8759 25.5166 45.888 25.5166 45.9002 25.5166C45.9123 25.5166 45.9244 25.5166 45.9366 25.5166C46.3794 25.5227 46.8223 25.5409 47.2652 25.5592C48.2844 25.6079 49.3036 25.687 50.3288 25.8027C56.3288 26.4844 62.3773 28.3349 68.2983 31.3053C71.1375 32.7296 72.2538 36.1201 70.7978 38.8775Z" fill="#2B2D42"/>
<path d="M69.451 31.9931C69.1112 31.707 68.7351 31.4574 68.3165 31.2505C62.3954 28.2861 56.347 26.4296 50.347 25.7478C49.3218 25.6322 48.3026 25.547 47.2834 25.5044C46.8405 25.48 46.3976 25.4678 45.9548 25.4618C45.9426 25.4618 45.9305 25.4618 45.9184 25.4618C45.9062 25.4618 45.8941 25.4618 45.882 25.4618C45.4148 25.4739 44.9416 25.4861 44.4745 25.5105C43.4796 25.5592 42.4846 25.6383 41.4897 25.7539C35.4898 26.4357 29.4413 28.2861 23.5202 31.2565C23.0592 31.4878 22.6406 31.7739 22.2705 32.0965C22.8711 29.5522 24.0056 27.0626 25.5404 24.7618C26.4201 23.4531 27.4272 22.1992 28.5374 21.0426C33.0995 16.2887 39.4452 13.02 45.8698 13.02C52.1913 13.02 58.4278 16.1791 62.9718 20.8052C64.173 22.0287 65.2528 23.3496 66.1871 24.7496C67.7098 27.0139 68.8382 29.4791 69.451 31.9931Z" fill="#8D99AE"/>
<path d="M69.3663 30.7877C68.7475 28.3651 67.6433 25.9912 66.1752 23.7999C65.2409 22.406 64.1611 21.079 62.9599 19.8616C58.4159 15.2355 52.1794 12.0764 45.8579 12.0764C39.4333 12.0764 33.0876 15.3451 28.5255 20.0929C27.4092 21.2555 26.4021 22.5034 25.5285 23.8121C24.0543 26.0155 22.9502 28.3955 22.3375 30.8242C20.8936 32.0416 20.1777 33.8738 20.384 35.6938C20.5903 33.8799 21.6944 32.1999 23.478 31.3051C29.3991 28.3408 35.4475 26.4842 41.4475 25.8025C42.4424 25.6869 43.4434 25.6077 44.4323 25.559C44.9055 25.5347 45.3726 25.5225 45.8397 25.5103C45.8519 25.5103 45.864 25.5103 45.8761 25.5103C45.8883 25.5103 45.9004 25.5103 45.9125 25.5103C46.3554 25.5164 46.7983 25.5347 47.2411 25.5529C48.2603 25.6016 49.2795 25.6808 50.3048 25.7964C56.3047 26.4782 62.3532 28.3286 68.2743 31.299C70.0639 32.1938 71.1681 33.8738 71.3683 35.6877C71.5745 33.8555 70.8344 32.0051 69.3663 30.7877ZM50.2987 24.5729C49.2735 24.4573 48.2543 24.3721 47.2351 24.3295C46.7922 24.3051 46.3493 24.2929 45.9065 24.2869C45.8943 24.2869 45.8822 24.2869 45.8701 24.2869C45.8579 24.2869 45.8458 24.2869 45.8337 24.2869C45.3665 24.299 44.8933 24.3112 44.4262 24.3355C43.4313 24.3842 42.4363 24.4634 41.4414 24.579C35.4415 25.2608 29.393 27.1112 23.4719 30.0816C23.1989 30.2155 22.9441 30.3738 22.7075 30.5382C23.3567 28.5599 24.3152 26.6303 25.5225 24.8225C26.3961 23.5138 27.4092 22.2599 28.5194 21.1034C33.0815 16.3495 39.4273 13.0808 45.8519 13.0808C52.1733 13.0808 58.4099 16.2399 62.9538 20.866C64.155 22.0895 65.2349 23.4103 66.1691 24.8103C67.3764 26.6121 68.3349 28.5355 68.9841 30.5138C68.7596 30.3555 68.5169 30.2155 68.2682 30.0877C62.3471 27.1112 56.2987 25.2608 50.2987 24.5729Z" fill="black"/>
<path d="M66.1811 24.8045C61.5886 22.5888 56.6261 21.2071 51.4148 20.6958C47.1135 20.2697 42.6424 20.434 38.1106 21.1766C31.595 22.2479 26.8691 24.2201 25.5283 24.8227C26.408 23.514 27.4151 22.2601 28.5253 21.1036C30.8549 20.3184 34.0035 19.4358 37.7223 18.821C42.4543 18.0418 47.1378 17.8775 51.6453 18.3218C55.5644 18.7114 59.35 19.5636 62.9597 20.8723C64.1669 22.0836 65.2468 23.4045 66.1811 24.8045Z" fill="#EDF2F4"/>
<path d="M29.1501 41.0566C29.0106 41.1296 28.865 41.1966 28.7255 41.2696C28.4282 41.4218 28.1188 41.5435 27.8094 41.6348C25.4131 36.6861 25.0187 32.7783 25.0794 30.4835C25.5769 30.2522 26.0804 30.027 26.5779 29.814C26.5354 30.3983 26.5111 31.1835 26.5839 32.1331C26.7295 34.1114 27.2937 37.2401 29.1501 41.0566Z" fill="#EDF2F4"/>
<path d="M36.679 38.1468C36.2118 38.2807 35.7447 38.4207 35.2715 38.5729C33.0875 33.2712 32.8994 29.4912 33.039 27.4703C33.5425 27.3242 34.046 27.1842 34.5435 27.0564C34.4768 27.6164 34.4282 28.4442 34.495 29.5277C34.6163 31.372 35.0895 34.3242 36.679 38.1468Z" fill="#EDF2F4"/>
<path d="M44.4561 36.7834C44.4379 36.7834 44.4258 36.7834 44.4076 36.7895C43.9405 36.82 43.4673 36.8626 43.0001 36.9113L42.3813 25.6748C42.8667 25.6321 43.352 25.5895 43.8373 25.5652L44.4561 36.7834Z" fill="#EDF2F4"/>
<path d="M52.7436 26.1129C52.7133 27.0868 52.6344 29.0834 52.4767 31.1895C52.2279 34.4825 51.9185 36.3086 51.6455 37.3434C51.1663 37.2521 50.6809 37.1729 50.2017 37.0999C50.8326 34.866 51.1905 29.4729 51.2876 25.8938C51.7729 25.9608 52.2583 26.0338 52.7436 26.1129Z" fill="#EDF2F4"/>
<path d="M58.8949 39.4495C60.539 36.3938 60.6603 31.0434 60.5875 28.0729C60.0961 27.9086 59.6047 27.7503 59.1073 27.6042C59.2043 30.3556 59.1801 36.0956 57.5117 38.9382L58.8949 39.4495Z" fill="#EDF2F4"/>
<path d="M67.9343 32.9548C67.9343 35.2739 67.6006 38.6217 66.0961 41.8661C65.9384 41.8783 65.7746 41.8844 65.6108 41.8844C65.2468 41.8844 64.8767 41.8478 64.5127 41.7809C66.6967 37.5018 66.5936 32.8209 66.3266 30.3374C66.8423 30.5748 67.3519 30.8183 67.8676 31.0678C67.91 31.64 67.9343 32.2731 67.9343 32.9548Z" fill="#EDF2F4"/>
<path d="M80.365 69.6834H10.6347C4.99879 69.6834 0.418457 65.0817 0.418457 59.433V55.8112C0.418457 50.1564 5.00486 45.5608 10.6347 45.5608H80.3589C85.9949 45.5608 90.5752 50.1625 90.5752 55.8112V59.433C90.5813 65.0877 85.9949 69.6834 80.365 69.6834ZM10.6347 47.2225C5.91486 47.2225 2.07466 51.0756 2.07466 55.8112V59.433C2.07466 64.1686 5.91486 68.0217 10.6347 68.0217H80.3589C85.0788 68.0217 88.919 64.1686 88.919 59.433V55.8112C88.919 51.0756 85.0788 47.2225 80.3589 47.2225H10.6347Z" fill="#2B2D42"/>
<path d="M89.0223 55.8114V59.4331C89.0223 64.1687 85.1821 68.0218 80.4622 68.0218H10.7319C6.01207 68.0218 2.17188 64.1687 2.17188 59.4331V55.8114C2.17188 51.0757 6.01207 47.2227 10.7319 47.2227H80.4561C85.1821 47.2227 89.0223 51.0757 89.0223 55.8114Z" fill="#219EBC"/>
<path d="M18.2608 60.9061V63.9191H9.3125V51.3252H18.1031V54.3382H12.7644V56.1095H17.3266V58.9156H12.7644V60.9H18.2608V60.9061Z" fill="white"/>
<path d="M19.8682 63.9191V51.3252H23.314V60.9061H29.0106V63.9191H19.8682Z" fill="white"/>
<path d="M30.2119 63.9191V51.3252H33.6578V63.9191H30.2119Z" fill="white"/>
<path d="M45.5973 54.3382H41.9876V63.9191H38.5417V54.3382H34.9199V51.3252H45.5973V54.3382Z" fill="white"/>
<path d="M57.955 51.3252V63.9191H54.5092V58.9887H50.2989V63.9191H46.853V51.3252H50.2989V55.9756H54.5092V51.3252H57.955Z" fill="white"/>
<path d="M63.0147 51.3252H66.867L70.8649 63.9191H67.3645L66.7153 61.4539H63.1663L62.5172 63.9191H58.9985L63.0147 51.3252ZM66.1087 59.1469L64.9439 54.7095L63.7791 59.1469H66.1087Z" fill="white"/>
<path d="M81.6876 54.3382H78.0779V63.9191H74.6321V54.3382H71.0103V51.3252H81.6876V54.3382Z" fill="white"/>
</g>
<defs>
<clipPath id="clip0_518_50">
<rect width="91" height="70" fill="white"/>
</clipPath>
</defs>
</svg>
