<svg width="1920" height="910" viewBox="0 0 1920 910" fill="none" xmlns="http://www.w3.org/2000/svg">
<rect width="1920" height="910" fill="#DCD8D1"/>
<path d="M1318 796C1291.6 854 1219 894.833 1186 908H1920V608C1877 624.5 1778.5 715.5 1730 717.5C1681.5 719.5 1645.5 645.5 1621 627C1596.5 608.5 1537.5 582.5 1461 603C1384.5 623.5 1351 723.5 1318 796Z" fill="#219EBC" stroke="#219EBC"/>
<path d="M200.5 543C120.5 523.4 33.1667 531.833 -0.5 538.5V909H851.5C840.5 903.167 810.1 887.7 776.5 872.5C734.5 853.5 581.5 815.5 516 776C450.5 736.5 432 704 391.5 659.5C321.764 582.876 300.5 567.5 200.5 543Z" fill="#219EBC" stroke="#219EBC"/>
<path d="M1233 908C1227.67 893 1221.8 860.1 1241 848.5C1265 834 1298.5 843 1310 820C1321.5 797 1313 775 1314.5 754.5C1316 734 1350 709 1392 719.5C1434 730 1482.5 785.5 1532 789.5C1581.5 793.5 1634.5 776 1673.5 728.5C1712.5 681 1751 674.5 1775 694C1799 713.5 1799 748.5 1775 755.5C1751 762.5 1703 736 1735 661.5C1767 587 1882 573.5 1918.5 602.5" stroke="#30BC21" stroke-width="12"/>
<path d="M-1.5 477C7.5 473.833 27.9 472.1 37.5 490.5C49.5 513.5 52.5 556.5 25.5 607.5C-1.5 658.5 25 719 75 732C125 745 137.5 766 139 785C140.5 804 126 842.5 100.5 834.5C75 826.5 79 796.5 100.5 785C117.717 775.791 152.5 772.5 188 796.5C223.5 820.5 236.5 851.5 233 907.5" stroke="#BC215F" stroke-width="12"/>
</svg>
