<svg width="15" height="15" viewBox="0 0 15 15" fill="none" xmlns="http://www.w3.org/2000/svg">
<path fill-rule="evenodd" clip-rule="evenodd" d="M10.4538 0.166568C10.99 -0.0555227 11.5924 -0.0555227 12.1286 0.166568C12.3692 0.266256 12.5653 0.411909 12.7432 0.567013C12.9111 0.713537 13.1004 0.902814 13.3163 1.11868L13.8813 1.68375C14.0972 1.8996 14.2865 2.08886 14.433 2.25684C14.5881 2.43466 14.7337 2.63075 14.8334 2.87142C15.0555 3.40759 15.0555 4.01003 14.8334 4.54621C14.7337 4.78687 14.5881 4.98297 14.433 5.16078C14.2865 5.32876 14.0972 5.518 13.8814 5.73383L7.29208 12.3231C5.5781 14.0371 3.25345 15 0.829516 15C0.37139 15 0 14.6286 0 14.1705C0 11.7465 0.962905 9.4219 2.67688 7.70792L9.2661 1.1187C9.48196 0.902827 9.67123 0.713542 9.83922 0.567013C10.017 0.411909 10.2131 0.266256 10.4538 0.166568ZM11.5257 1.62215C11.3755 1.55997 11.2068 1.55997 11.0567 1.62215C11.04 1.62907 10.9921 1.65207 10.8749 1.75432C10.7523 1.86123 10.6011 2.01178 10.3628 2.25011L9.95444 2.65847L12.3415 5.04556L12.7499 4.63719C12.9882 4.39887 13.1388 4.24772 13.2457 4.12515C13.3479 4.00792 13.3709 3.95998 13.3778 3.94328C13.44 3.79315 13.44 3.62447 13.3778 3.47434C13.3709 3.45765 13.3479 3.4097 13.2457 3.29248C13.1388 3.16991 12.9882 3.01876 12.7499 2.78043L12.2196 2.25011C11.9812 2.01178 11.8301 1.86123 11.7075 1.75432C11.5903 1.65207 11.5424 1.62907 11.5257 1.62215ZM11.2275 6.15961L8.84039 3.77253L3.79094 8.82197C2.55917 10.0537 1.79611 11.6666 1.61655 13.3835C3.33338 13.2039 4.94625 12.4408 6.17803 11.2091L11.2275 6.15961Z" fill="#1E1E1E"/>
</svg>
