<svg width="20" height="20" viewBox="0 0 20 20" fill="none" xmlns="http://www.w3.org/2000/svg">
<path d="M5.20962 14.7904C11.7855 21.3663 16.9001 20.6356 19.0921 18.4437C20.3027 17.2331 20.3026 15.2703 19.0921 14.0597L17.6091 12.5768C16.814 11.7817 15.5249 11.7817 14.7298 12.5768C13.8209 13.4856 12.4675 13.8 11.3734 13.1254C10.6327 12.6688 9.74781 12.022 8.86289 11.1371C7.97797 10.2522 7.33122 9.36727 6.87456 8.62658C6.20003 7.5325 6.51437 6.17908 7.42322 5.27024C8.21833 4.47512 8.21833 3.186 7.42322 2.39089L5.94027 0.907942C4.72968 -0.302647 2.76693 -0.302647 1.55634 0.907942C-0.635623 3.09991 -1.36628 8.21449 5.20962 14.7904Z" fill="#219EBC"/>
</svg>
