<svg width="300" height="120" viewBox="0 0 300 120" fill="none" xmlns="http://www.w3.org/2000/svg">
<rect x="0.5" y="0.5" width="299" height="119" rx="4.5" fill="#219EBC" stroke="#1E1E1E"/>
<path d="M121.725 66V54.8H126.733C127.991 54.8 128.973 55.0507 129.677 55.552C130.381 56.0427 130.733 56.752 130.733 57.68C130.733 58.5973 130.397 59.3067 129.725 59.808C129.053 60.2987 128.167 60.544 127.069 60.544L127.357 59.968C128.605 59.968 129.57 60.2187 130.253 60.72C130.935 61.2213 131.277 61.9467 131.277 62.896C131.277 63.8667 130.919 64.6293 130.205 65.184C129.49 65.728 128.434 66 127.037 66H121.725ZM123.773 64.4H126.973C127.698 64.4 128.247 64.2667 128.621 64C128.994 63.7227 129.181 63.3013 129.181 62.736C129.181 62.1707 128.994 61.76 128.621 61.504C128.247 61.2373 127.698 61.104 126.973 61.104H123.773V64.4ZM123.773 59.584H126.557C127.229 59.584 127.741 59.4507 128.093 59.184C128.445 58.9067 128.621 58.512 128.621 58C128.621 57.4667 128.445 57.0667 128.093 56.8C127.741 56.5333 127.229 56.4 126.557 56.4H123.773V59.584ZM135.566 59.456H141.134V61.168H135.566V59.456ZM135.726 64.256H142.046V66H133.646V54.8H141.822V56.544H135.726V64.256ZM149.517 66.16C148.664 66.16 147.869 66.0213 147.133 65.744C146.408 65.456 145.773 65.056 145.229 64.544C144.696 64.0213 144.28 63.408 143.981 62.704C143.682 62 143.533 61.232 143.533 60.4C143.533 59.568 143.682 58.8 143.981 58.096C144.28 57.392 144.701 56.784 145.245 56.272C145.789 55.7493 146.424 55.3493 147.149 55.072C147.874 54.784 148.669 54.64 149.533 54.64C150.45 54.64 151.288 54.8 152.045 55.12C152.802 55.4293 153.442 55.8933 153.965 56.512L152.621 57.776C152.216 57.3387 151.762 57.0133 151.261 56.8C150.76 56.576 150.216 56.464 149.629 56.464C149.042 56.464 148.504 56.56 148.013 56.752C147.533 56.944 147.112 57.216 146.749 57.568C146.397 57.92 146.12 58.336 145.917 58.816C145.725 59.296 145.629 59.824 145.629 60.4C145.629 60.976 145.725 61.504 145.917 61.984C146.12 62.464 146.397 62.88 146.749 63.232C147.112 63.584 147.533 63.856 148.013 64.048C148.504 64.24 149.042 64.336 149.629 64.336C150.216 64.336 150.76 64.2293 151.261 64.016C151.762 63.792 152.216 63.456 152.621 63.008L153.965 64.288C153.442 64.896 152.802 65.36 152.045 65.68C151.288 66 150.445 66.16 149.517 66.16ZM163.768 54.8H165.848V66H163.768V54.8ZM157.976 66H155.896V54.8H157.976V66ZM163.928 61.2H157.8V59.424H163.928V61.2ZM167.566 66L172.606 54.8H174.654L179.71 66H177.534L173.198 55.904H174.03L169.71 66H167.566ZM169.886 63.408L170.446 61.776H176.494L177.054 63.408H169.886Z" fill="white"/>
</svg>
