<svg width="20.000000" height="20.000000" viewBox="0 0 20 20" fill="none" xmlns="http://www.w3.org/2000/svg" xmlns:xlink="http://www.w3.org/1999/xlink">
	<desc>
			Created with Pixso.
	</desc>
	<defs/>
	<path id="Vector" d="M2.5 0C1.11926 0 0 1.11926 0 2.5L0 6.25C0 7.63074 1.11926 8.75 2.5 8.75L6.25 8.75C7.63074 8.75 8.75 7.63074 8.75 6.25L8.75 2.5C8.75 1.11926 7.63074 0 6.25 0L2.5 0ZM11.25 2.5C11.25 1.11926 12.3693 0 13.75 0L17.5 0C18.8807 0 20 1.11926 20 2.5L20 6.25C20 7.63074 18.8807 8.75 17.5 8.75L13.75 8.75C12.3693 8.75 11.25 7.63074 11.25 6.25L11.25 2.5ZM2.5 1L6.25 1Q6.4303 1 6.60071 1.04077Q6.71948 1.06921 6.83362 1.11743Q6.95422 1.16858 7.06274 1.23853Q7.19592 1.32458 7.31067 1.43933Q7.42542 1.55408 7.51147 1.68726Q7.58154 1.79578 7.63257 1.91638Q7.68079 2.03052 7.70923 2.14929Q7.75 2.3197 7.75 2.5L7.75 6.25Q7.75 6.4303 7.70923 6.60071Q7.68079 6.71948 7.63257 6.83362Q7.58142 6.95422 7.51147 7.06274Q7.42542 7.19592 7.31067 7.31067Q7.19592 7.42542 7.06274 7.51147Q6.95422 7.58142 6.83362 7.63257Q6.71948 7.68079 6.60071 7.70923Q6.4303 7.75 6.25 7.75L2.5 7.75Q2.3197 7.75 2.14929 7.70923Q2.03052 7.68079 1.91638 7.63257Q1.79578 7.58154 1.68726 7.51147Q1.55408 7.42542 1.43933 7.31067Q1.32458 7.19592 1.23853 7.06274Q1.16846 6.95422 1.11743 6.83362Q1.06921 6.71948 1.04077 6.60071Q1 6.4303 1 6.25L1 2.5Q1 2.3197 1.04077 2.14929Q1.06921 2.03052 1.11743 1.91638Q1.16846 1.79578 1.23853 1.68726Q1.32458 1.55408 1.43933 1.43933Q1.55408 1.32458 1.68738 1.23853Q1.79578 1.16846 1.91638 1.11743Q2.03052 1.06921 2.14929 1.04077Q2.3197 1 2.5 1ZM13.75 1L17.5 1Q17.6803 1 17.8507 1.04077Q17.9695 1.06921 18.0836 1.11743Q18.2042 1.16846 18.3126 1.23853Q18.4459 1.32458 18.5607 1.43933Q18.6754 1.55408 18.7615 1.68738Q18.8315 1.79578 18.8826 1.91638Q18.9308 2.03052 18.9592 2.14929Q19 2.31982 19 2.5L19 6.25Q19 6.43018 18.9592 6.60071Q18.9308 6.71948 18.8826 6.83362Q18.8314 6.95422 18.7615 7.06274Q18.6754 7.19592 18.5607 7.31067Q18.4459 7.42542 18.3126 7.51147Q18.2042 7.58154 18.0836 7.63257Q17.9695 7.68079 17.8507 7.70923Q17.6803 7.75 17.5 7.75L13.75 7.75Q13.5697 7.75 13.3993 7.70923Q13.2805 7.68079 13.1664 7.63257Q13.0458 7.58154 12.9374 7.51147Q12.8041 7.42542 12.6893 7.31067Q12.5746 7.19592 12.4885 7.06274Q12.4186 6.95422 12.3674 6.83362Q12.3192 6.71948 12.2908 6.60071Q12.25 6.4303 12.25 6.25L12.25 2.5Q12.25 2.3197 12.2908 2.14929Q12.3192 2.03052 12.3674 1.91638Q12.4186 1.79578 12.4885 1.68726Q12.5746 1.55408 12.6893 1.43933Q12.8041 1.32458 12.9373 1.23853Q13.0458 1.16858 13.1664 1.11743Q13.2805 1.06921 13.3993 1.04077Q13.5697 1 13.75 1ZM2.5 11.25C1.11926 11.25 0 12.3693 0 13.75L0 17.5C0 18.8807 1.11926 20 2.5 20L6.25 20C7.63074 20 8.75 18.8807 8.75 17.5L8.75 13.75C8.75 12.3693 7.63074 11.25 6.25 11.25L2.5 11.25ZM2.5 12.25L6.25 12.25Q6.4303 12.25 6.60071 12.2908Q6.71948 12.3192 6.83362 12.3674Q6.95422 12.4186 7.06274 12.4885Q7.19592 12.5746 7.31067 12.6893Q7.42542 12.8041 7.51147 12.9373Q7.58142 13.0457 7.63257 13.1664Q7.68079 13.2805 7.70923 13.3993Q7.75 13.5697 7.75 13.75L7.75 17.5Q7.75 17.6803 7.70923 17.8507Q7.68079 17.9695 7.63257 18.0836Q7.58154 18.2042 7.51147 18.3126Q7.42542 18.4459 7.31067 18.5607Q7.19592 18.6754 7.06274 18.7615Q6.95422 18.8315 6.83362 18.8826Q6.71948 18.9308 6.60071 18.9592Q6.43018 19 6.25 19L2.5 19Q2.31982 19 2.14929 18.9592Q2.03052 18.9308 1.91638 18.8826Q1.79578 18.8315 1.68738 18.7615Q1.55408 18.6754 1.43933 18.5607Q1.32458 18.4459 1.23853 18.3126Q1.16846 18.2042 1.11743 18.0836Q1.06921 17.9695 1.04077 17.8507Q1 17.6803 1 17.5L1 13.75Q1 13.5697 1.04077 13.3993Q1.06921 13.2805 1.11743 13.1664Q1.16846 13.0458 1.23853 12.9374Q1.32458 12.8041 1.43933 12.6893Q1.55408 12.5746 1.68738 12.4885Q1.79578 12.4185 1.91638 12.3674Q2.03052 12.3192 2.14929 12.2908Q2.3197 12.25 2.5 12.25Z" fill="#FFFFFF" fill-opacity="1.000000" fill-rule="evenodd"/>
</svg>
