<svg width="300" height="120" viewBox="0 0 300 120" fill="none" xmlns="http://www.w3.org/2000/svg">
<rect x="0.5" y="0.5" width="299" height="119" rx="4.5" fill="#219EBC" stroke="#1E1E1E"/>
<path d="M130.751 66.16C130.569 66.16 130.388 66.144 130.207 66.112C130.025 66.08 129.828 66.0427 129.615 66L129.759 64.192C129.908 64.2347 130.068 64.256 130.239 64.256C130.687 64.256 131.044 64.0747 131.311 63.712C131.577 63.3387 131.769 62.7947 131.887 62.08C132.004 61.3653 132.084 60.4853 132.127 59.44L132.287 54.8H140.527V66H138.479V56.048L138.959 56.56H133.631L134.079 56.032L133.967 59.36C133.935 60.4693 133.86 61.4453 133.743 62.288C133.625 63.1307 133.444 63.84 133.199 64.416C132.964 64.9813 132.649 65.4133 132.255 65.712C131.86 66.0107 131.359 66.16 130.751 66.16ZM143.693 66V54.8H145.741V66H143.693ZM151.248 66V56.048L151.744 56.56H147.552V54.8H157.024V56.56H152.832L153.312 56.048V66H151.248ZM163.862 66.16C162.987 66.16 162.182 66.016 161.446 65.728C160.71 65.44 160.07 65.04 159.526 64.528C158.982 64.0053 158.56 63.3973 158.262 62.704C157.963 62 157.814 61.232 157.814 60.4C157.814 59.568 157.963 58.8053 158.262 58.112C158.56 57.408 158.982 56.8 159.526 56.288C160.07 55.7653 160.71 55.36 161.446 55.072C162.182 54.784 162.982 54.64 163.846 54.64C164.72 54.64 165.52 54.784 166.246 55.072C166.982 55.36 167.622 55.7653 168.166 56.288C168.71 56.8 169.131 57.408 169.43 58.112C169.728 58.8053 169.878 59.568 169.878 60.4C169.878 61.232 169.728 62 169.43 62.704C169.131 63.408 168.71 64.016 168.166 64.528C167.622 65.04 166.982 65.44 166.246 65.728C165.52 66.016 164.726 66.16 163.862 66.16ZM163.846 64.336C164.411 64.336 164.934 64.24 165.414 64.048C165.894 63.856 166.31 63.584 166.662 63.232C167.014 62.8693 167.286 62.4533 167.478 61.984C167.68 61.504 167.782 60.976 167.782 60.4C167.782 59.824 167.68 59.3013 167.478 58.832C167.286 58.352 167.014 57.936 166.662 57.584C166.31 57.2213 165.894 56.944 165.414 56.752C164.934 56.56 164.411 56.464 163.846 56.464C163.28 56.464 162.758 56.56 162.278 56.752C161.808 56.944 161.392 57.2213 161.03 57.584C160.678 57.936 160.4 58.352 160.198 58.832C160.006 59.3013 159.91 59.824 159.91 60.4C159.91 60.9653 160.006 61.488 160.198 61.968C160.4 62.448 160.678 62.8693 161.03 63.232C161.382 63.584 161.798 63.856 162.278 64.048C162.758 64.24 163.28 64.336 163.846 64.336Z" fill="white"/>
</svg>
