<svg width="300" height="120" viewBox="0 0 300 120" fill="none" xmlns="http://www.w3.org/2000/svg">
<rect x="0.5" y="0.5" width="299" height="119" rx="4.5" fill="#219EBC" stroke="#1E1E1E"/>
<path d="M124.769 64.896L125.441 63.376C125.921 63.7067 126.443 63.9627 127.009 64.144C127.585 64.3147 128.155 64.4053 128.721 64.416C129.286 64.4267 129.798 64.3627 130.257 64.224C130.726 64.0853 131.099 63.8773 131.377 63.6C131.654 63.3227 131.793 62.976 131.793 62.56C131.793 62.0587 131.585 61.6853 131.169 61.44C130.763 61.184 130.209 61.056 129.505 61.056H126.897V59.424H129.345C129.974 59.424 130.459 59.296 130.801 59.04C131.153 58.784 131.329 58.4373 131.329 58C131.329 57.6373 131.211 57.3387 130.977 57.104C130.753 56.8693 130.443 56.6933 130.049 56.576C129.665 56.4587 129.227 56.4053 128.737 56.416C128.257 56.416 127.755 56.4907 127.233 56.64C126.71 56.7787 126.214 56.9867 125.745 57.264L125.089 55.584C125.793 55.2107 126.529 54.9493 127.297 54.8C128.075 54.6507 128.827 54.608 129.553 54.672C130.278 54.736 130.929 54.9013 131.505 55.168C132.091 55.4347 132.561 55.7867 132.913 56.224C133.265 56.6507 133.441 57.1573 133.441 57.744C133.441 58.2773 133.297 58.752 133.009 59.168C132.731 59.5733 132.347 59.888 131.857 60.112C131.366 60.336 130.795 60.448 130.145 60.448L130.225 59.936C130.961 59.936 131.601 60.064 132.145 60.32C132.699 60.5653 133.126 60.9067 133.425 61.344C133.734 61.7813 133.889 62.288 133.889 62.864C133.889 63.408 133.75 63.8933 133.473 64.32C133.195 64.736 132.817 65.088 132.337 65.376C131.857 65.6533 131.307 65.8613 130.689 66C130.07 66.128 129.419 66.176 128.737 66.144C128.054 66.112 127.371 65.9947 126.689 65.792C126.017 65.5893 125.377 65.2907 124.769 64.896ZM136.279 66V54.8H138.327V62.752L144.343 54.8H146.279V66H144.231V58.064L138.215 66H136.279ZM149.436 66V54.8H151.132L156.044 62.976H155.132L159.964 54.8H161.66L161.692 66H159.708L159.692 57.888H160.108L156.012 64.72H155.084L150.924 57.888H151.404V66H149.436ZM163.402 66L168.442 54.8H170.49L175.546 66H173.37L169.034 55.904H169.866L165.546 66H163.402ZM165.722 63.408L166.282 61.776H172.33L172.89 63.408H165.722Z" fill="white"/>
</svg>
