<svg width="84" height="75" fill="none" xmlns="http://www.w3.org/2000/svg"><path fill-rule="evenodd" clip-rule="evenodd" d="M6.024 0C2.697 0 0 2.686 0 6v49c0 3.314 2.697 6 6.024 6H47.99c-.52-1.573-.8-3.254-.8-5 0-8.837 7.192-16 16.064-16 .76 0 1.507.053 2.238.154C63.145 37.231 57.727 32 52.711 32c-5.221 0-14.224 9.333-18.072 14-2.845-2.667-9.338-8.1-12.55-8.5-3.12-.388-14.373 10.813-20.081 16.957V6c0-2.21 1.798-4 4.016-4h64.257a4.008 4.008 0 0 1 4.016 4v34.5h2.008V6c0-3.314-2.697-6-6.024-6H6.024ZM30.12 17.5c0 3.222-2.622 5.833-5.856 5.833-3.235 0-5.857-2.611-5.857-5.833s2.622-5.833 5.857-5.833c3.234 0 5.856 2.611 5.856 5.833ZM67.27 75c8.872 0 16.064-7.163 16.064-16S76.141 43 67.27 43s-16.064 7.163-16.064 16 7.192 16 16.064 16Zm-1.004-24h2.008v7h7.028v2h-7.028v7h-2.008v-7h-7.028v-2h7.028v-7Z" fill="#219EBC"/></svg>