<svg width="20" height="20" fill="none" xmlns="http://www.w3.org/2000/svg"><path d="M6.54 3.462a3.462 3.462 0 1 1 6.886.504c4.557 3.535 5.746 8.129 5.804 10.65H20V20H0v-5.385h.771C.83 12.095 2.018 7.5 6.576 3.965a3.494 3.494 0 0 1-.036-.503ZM1.927 14.615h16.147c-.067-2.126-1.114-6.124-5.104-9.373a3.46 3.46 0 0 1-2.969 1.681 3.46 3.46 0 0 1-2.97-1.681c-3.989 3.249-5.037 7.247-5.104 9.373Zm8.074-13.461a2.308 2.308 0 1 0 0 4.615 2.308 2.308 0 0 0 0-4.615ZM1.132 15.769v3.077h17.736V15.77H1.132Z" clip-rule="evenodd" fill="#FFF" fill-rule="evenodd"/></svg>