<svg width="130" height="150" fill="none" xmlns="http://www.w3.org/2000/svg"><path fill-rule="evenodd" clip-rule="evenodd" d="M121.577 3.026A52.262 52.262 0 0 1 122.69 0h3.254a47.76 47.76 0 0 0-1.521 3.974c-.254.761-.239 1.635.038 2.716.281 1.097.802 2.295 1.455 3.664.166.348.341.706.52 1.074 1.183 2.426 2.575 5.282 3.047 8.344.333 2.167-.487 4.173-1.835 5.86-1.342 1.68-3.286 3.154-5.485 4.369C117.768 32.428 112.02 34 107 34c-6.297 0-11.536-2.115-16.558-4.142-1.13-.456-2.248-.908-3.365-1.33-6.128-2.315-12.61-3.968-21.695-1.577-4.603 1.211-7.813 2.791-10.243 4.679-2.427 1.885-4.155 4.137-5.719 6.814-1.086 1.859-2.058 3.854-3.134 6.064-.504 1.034-1.03 2.116-1.602 3.252-1.77 3.516-3.905 7.407-6.97 11.622-1.78 2.447-3.611 4.33-5.456 5.715.108 2.16.03 4.52-.268 7.076-1.07 9.21-7.3 16.126-14.2 20.887-6.13 4.228-12.98 6.893-17.79 8.048v-3.093C4.418 96.86 10.563 94.4 16.086 90.59c6.556-4.522 11.995-10.773 12.924-18.763.205-1.766.299-3.409.296-4.933-.932.439-1.863.76-2.788.971-3.753.859-7.183-.143-9.854-2.014-2.647-1.854-4.603-4.593-5.49-7.364-.876-2.738-.783-5.83 1.224-8.004 3.6-3.901 9.4-4.093 13.763-.374 2.741 2.337 4.86 6.132 5.722 11.398 1.116-1.03 2.256-2.311 3.404-3.89 2.934-4.034 4.987-7.768 6.717-11.206.527-1.046 1.03-2.08 1.524-3.093 1.105-2.268 2.157-4.429 3.302-6.387 1.686-2.886 3.645-5.477 6.469-7.67 2.82-2.191 6.422-3.923 11.32-5.212 9.915-2.609 17.075-.762 23.519 1.673 1.24.469 2.44.951 3.619 1.425C96.74 29.151 101.338 31 107 31c4.48 0 9.732-1.427 13.712-3.626 1.988-1.097 3.576-2.342 4.593-3.615 1.011-1.266 1.379-2.448 1.212-3.53-.396-2.577-1.564-4.983-2.757-7.442-.184-.379-.369-.759-.551-1.14-.659-1.382-1.295-2.809-1.654-4.212-.364-1.42-.474-2.92.022-4.41Zm-92.44 60.56c-.583-5.605-2.613-9.226-4.923-11.194-3.262-2.782-7.213-2.474-9.612.125-.993 1.076-1.267 2.879-.57 5.056.686 2.145 2.242 4.342 4.353 5.82 2.087 1.463 4.662 2.189 7.465 1.548 1.04-.238 2.143-.672 3.288-1.355Z" fill="#30BC21"/><path fill-rule="evenodd" clip-rule="evenodd" d="M5.628 77.132C3.353 73.062 1.264 71.009 0 70.198v-3.415c2.155 1.174 5.705 4.337 8.247 8.885 2.826 5.057 5.705 12.636 7.728 23.559 2.363 12.76 11.159 18.557 20.069 21.145 8.971 2.607 17.866 1.878 19.77 1.64 2.096-.262 6.551-.529 11.05.595a21.39 21.39 0 0 1 3.316 1.114c4.739-2.621 10.552-4.131 15.935-3.716 6.548.503 12.433 1.395 17.968 4.36 5.556 2.976 10.607 7.955 15.7 16.358l.042.069.034.074c1.747 3.743 1.94 6.852 1.457 9.134h-3.105c.489-1.507.665-4.107-1.037-7.793-4.891-8.053-9.577-12.556-14.507-15.197-4.965-2.66-10.33-3.518-16.782-4.014-4.141-.319-8.648.671-12.557 2.489a14.324 14.324 0 0 1 5.065 6.458c2.27 5.676.012 11.159-3.79 13.79-1.908 1.322-4.262 1.959-6.634 1.453-2.39-.509-4.585-2.131-6.255-4.914-1.743-2.905-1.894-5.938-.893-8.758.981-2.766 3.04-5.262 5.62-7.313.189-.15.38-.297.575-.443a22.211 22.211 0 0 0-.88-.24c-4.001-1-8.046-.767-9.95-.529-2.096.262-11.451 1.033-20.98-1.736-9.59-2.786-19.544-9.24-22.18-23.48-1.978-10.677-4.765-17.93-7.398-22.641Zm64.689 49.993c-.707.448-1.38.924-2.009 1.424-2.295 1.825-3.923 3.891-4.66 5.968-.718 2.024-.619 4.117.638 6.211 1.33 2.217 2.886 3.221 4.308 3.524 1.44.307 2.961-.057 4.302-.985 2.7-1.869 4.44-5.886 2.711-10.21-1.114-2.786-3.025-4.672-5.29-5.932Z" fill="#219EBC"/></svg>