<svg width="15" height="15" fill="none" xmlns="http://www.w3.org/2000/svg"><path fill-rule="evenodd" clip-rule="evenodd" d="M10.55 2.79h3.768a.69.69 0 0 1 .682.698.69.69 0 0 1-.682.698h-.744l-.68 7.184c-.048.512-.088.935-.148 1.28-.062.36-.153.687-.33.991a2.752 2.752 0 0 1-1.174 1.09c-.313.152-.64.213-.996.242C9.906 15 9.49 15 8.987 15H6.013c-.502 0-.918 0-1.26-.027-.355-.029-.682-.09-.995-.242a2.751 2.751 0 0 1-1.174-1.09c-.177-.304-.268-.632-.33-.99-.06-.346-.1-.77-.148-1.28l-.68-7.185H.682A.69.69 0 0 1 0 3.488a.69.69 0 0 1 .682-.697H4.45C4.62 1.22 5.92 0 7.5 0c1.58 0 2.88 1.22 3.05 2.79ZM5.106 4.187h-2.31l.665 7.023c.051.545.087.914.136 1.199.047.276.1.418.158.517.138.237.343.427.587.545.102.05.245.09.518.112.282.022.644.023 1.18.023h2.92c.536 0 .898 0 1.18-.023.273-.022.416-.062.518-.112.244-.118.449-.308.587-.545.059-.1.11-.241.158-.517.05-.285.085-.654.136-1.2l.665-7.022H5.106ZM9.17 2.791c-.158-.796-.845-1.396-1.67-1.396s-1.512.6-1.67 1.396h3.34Z" fill="#1E1E1E"/></svg>