<svg width="20" height="15" fill="none" xmlns="http://www.w3.org/2000/svg"><path fill-rule="evenodd" clip-rule="evenodd" d="M.327 1.445C0 2.012 0 2.753 0 4.235v6.53c0 1.482 0 2.223.327 2.79a2.85 2.85 0 0 0 1.311 1.156C2.28 15 3.12 15 4.8 15h10.4c1.68 0 2.52 0 3.162-.289a2.849 2.849 0 0 0 1.311-1.156c.327-.567.327-1.308.327-2.79v-6.53c0-1.482 0-2.223-.327-2.79A2.849 2.849 0 0 0 18.362.29C17.72 0 16.88 0 15.2 0H4.8C3.12 0 2.28 0 1.638.289A2.85 2.85 0 0 0 .327 1.445Zm4.294 1.393c-.433-.303-1.062-.238-1.405.144-.343.382-.27.937.163 1.24l6 4.19c.364.254.878.254 1.242 0l6-4.19c.433-.303.506-.858.163-1.24-.343-.382-.972-.447-1.405-.144L10 6.595 4.62 2.838Z" fill="#219EBC"/></svg>