<svg width="300" height="120" fill="none" xmlns="http://www.w3.org/2000/svg"><rect x=".5" y=".5" width="299" height="119" rx="4.5" fill="#219EBC" stroke="#1E1E1E"/><path d="M129.854 66.16c-.875 0-1.68-.144-2.416-.432a5.911 5.911 0 0 1-1.92-1.2 5.555 5.555 0 0 1-1.264-1.824 5.833 5.833 0 0 1-.448-2.304c0-.832.149-1.595.448-2.288a5.34 5.34 0 0 1 1.264-1.824 5.775 5.775 0 0 1 1.92-1.216 6.53 6.53 0 0 1 2.4-.432c.875 0 1.675.144 2.4.432a5.775 5.775 0 0 1 1.92 1.216 5.34 5.34 0 0 1 1.264 1.824c.299.693.448 1.456.448 2.288 0 .832-.149 1.6-.448 2.304a5.34 5.34 0 0 1-1.264 1.824 5.911 5.911 0 0 1-1.92 1.2 6.403 6.403 0 0 1-2.384.432Zm-.016-1.824c.565 0 1.088-.096 1.568-.288.48-.192.896-.464 1.248-.816a4.026 4.026 0 0 0 1.12-2.832 3.91 3.91 0 0 0-.304-1.568 3.671 3.671 0 0 0-.816-1.248 3.56 3.56 0 0 0-1.248-.832 4.185 4.185 0 0 0-1.568-.288c-.565 0-1.088.096-1.568.288-.469.192-.885.47-1.248.832a3.882 3.882 0 0 0-.832 1.248c-.192.47-.288.992-.288 1.568 0 .565.096 1.088.288 1.568.203.48.48.901.832 1.264.352.352.768.624 1.248.816.48.192 1.003.288 1.568.288Zm13.484 1.824a6.704 6.704 0 0 1-2.384-.416 5.945 5.945 0 0 1-1.904-1.2 5.602 5.602 0 0 1-1.248-1.84 5.833 5.833 0 0 1-.448-2.304c0-.832.149-1.6.448-2.304a5.327 5.327 0 0 1 1.264-1.824 5.599 5.599 0 0 1 1.904-1.2 6.403 6.403 0 0 1 2.384-.432c.917 0 1.754.16 2.512.48a4.91 4.91 0 0 1 1.92 1.392l-1.344 1.264a3.977 3.977 0 0 0-1.36-.976 3.959 3.959 0 0 0-1.632-.336c-.587 0-1.126.096-1.616.288a3.84 3.84 0 0 0-1.264.816c-.352.352-.63.768-.832 1.248a4.228 4.228 0 0 0-.288 1.584c0 .576.096 1.104.288 1.584.202.48.48.896.832 1.248a3.84 3.84 0 0 0 1.264.816c.49.192 1.029.288 1.616.288a4.13 4.13 0 0 0 1.632-.32 4.08 4.08 0 0 0 1.36-1.008l1.344 1.28a5.129 5.129 0 0 1-1.92 1.392c-.758.32-1.6.48-2.528.48Zm6.395-.16V54.8h2.048V66h-2.048Zm13.075-11.2h2.08V66h-2.08V54.8ZM157 66h-2.08V54.8H157V66Zm5.952-4.8h-6.128v-1.776h6.128V61.2Zm10.229-2.608c1.334 0 2.363.299 3.088.896.726.597 1.088 1.493 1.088 2.688 0 1.259-.4 2.213-1.2 2.864-.789.64-1.893.96-3.312.96h-4.816V54.8h2.048v3.792h3.104Zm-.432 5.808c.8 0 1.419-.187 1.856-.56.448-.373.672-.917.672-1.632 0-.704-.218-1.216-.656-1.536-.437-.33-1.061-.496-1.872-.496h-2.672V64.4h2.672Z" fill="#fff"/></svg>