<svg width="20" height="15.238" fill="none" xmlns="http://www.w3.org/2000/svg"><path d="M3.571 0a3.571 3.571 0 1 0 3.502 4.28.476.476 0 0 0 .07.006h12.38a.476.476 0 0 0 0-.953H7.136A3.572 3.572 0 0 0 3.571 0Zm0 1a2.571 2.571 0 1 0 0 5.143 2.571 2.571 0 0 0 0-5.143ZM20 11.667a3.571 3.571 0 0 0-7.135-.238H.477a.476.476 0 1 0 0 .952h12.38a.466.466 0 0 0 .07-.005 3.573 3.573 0 0 0 7.073-.71Zm-1 0a2.571 2.571 0 1 0-5.143 0 2.571 2.571 0 0 0 5.143 0Z" clip-rule="evenodd" fill="#FFF" fill-rule="evenodd"/></svg>