<svg width="91" height="70" fill="none" xmlns="http://www.w3.org/2000/svg"><g clip-path="url(#a)"><path d="M72.557 34.884a6.906 6.906 0 0 0-1.996-3.591c-.655-2.49-1.777-4.937-3.343-7.274a28.588 28.588 0 0 0-3.373-4.133c-2.341-2.38-5.084-4.358-7.983-5.758.364-1.078.552-2.204.552-3.366 0-5.759-4.672-10.446-10.41-10.446-5.74 0-10.411 4.687-10.411 10.446 0 1.101.17 2.179.497 3.207-3.124 1.461-6.06 3.574-8.548 6.16a28.528 28.528 0 0 0-3.142 3.902c-1.59 2.374-2.718 4.852-3.361 7.378-2.117 2.124-2.633 5.362-1.226 8.028 1.22 2.313 3.628 3.75 6.292 3.75a7.2 7.2 0 0 0 3.215-.761c4.435-2.222 8.894-3.622 13.25-4.163a35.304 35.304 0 0 1 3.294-.25c1.092.03 2.202.11 3.294.25 4.356.541 8.815 1.941 13.25 4.163a7.2 7.2 0 0 0 3.215.76c2.657 0 5.072-1.436 6.285-3.749a6.853 6.853 0 0 0 .65-4.553Z" fill="#000"/><path d="M55.013 10.816a9.128 9.128 0 0 1-.91 3.981c-2.676-1.138-5.521-1.783-8.385-1.783-2.754 0-5.49.596-8.074 1.655a9.088 9.088 0 0 1-.85-3.853c0-5.046 4.077-9.136 9.107-9.136 5.035 0 9.112 4.09 9.112 9.136Z" fill="#219EBC"/><path d="M70.798 38.877c-1.02 1.936-3.04 3.05-5.133 3.05-.885 0-1.79-.2-2.633-.62-4.568-2.29-9.166-3.732-13.674-4.292a34.92 34.92 0 0 0-3.452-.256 38.027 38.027 0 0 0-3.458.256c-4.507.56-9.106 2.002-13.674 4.291a5.904 5.904 0 0 1-2.633.621c-2.093 0-4.113-1.114-5.132-3.05-1.456-2.763-.34-6.147 2.493-7.566 5.921-2.964 11.97-4.82 17.97-5.502a45.108 45.108 0 0 1 2.984-.244c.473-.024.94-.036 1.408-.048h.073a47.488 47.488 0 0 1 4.392.286c6 .681 12.048 2.532 17.97 5.502 2.838 1.425 3.955 4.815 2.499 7.572Z" fill="#2B2D42"/><path d="M69.451 31.993a5.62 5.62 0 0 0-1.134-.742c-5.922-2.965-11.97-4.821-17.97-5.503a43.56 43.56 0 0 0-3.064-.244 32.036 32.036 0 0 0-1.328-.042h-.073c-.467.012-.94.024-1.407.049-.995.048-1.99.127-2.985.243-6 .682-12.049 2.532-17.97 5.502-.46.232-.88.518-1.25.84.601-2.544 1.736-5.033 3.27-7.334a27.713 27.713 0 0 1 2.997-3.72C33.1 16.29 39.445 13.02 45.87 13.02c6.321 0 12.558 3.16 17.102 7.785a27.17 27.17 0 0 1 3.215 3.945c1.523 2.264 2.651 4.73 3.264 7.243Z" fill="#8D99AE"/><path d="M69.366 30.788c-.618-2.423-1.723-4.797-3.19-6.988a27.122 27.122 0 0 0-3.216-3.938c-4.544-4.626-10.78-7.786-17.102-7.786-6.425 0-12.77 3.27-17.332 8.017a27.149 27.149 0 0 0-2.997 3.72c-1.475 2.203-2.579 4.582-3.192 7.011a5.555 5.555 0 0 0-1.953 4.87 5.623 5.623 0 0 1 3.094-4.389c5.921-2.964 11.97-4.82 17.97-5.503a45.176 45.176 0 0 1 2.984-.243c.474-.024.94-.037 1.408-.049h.073c.442.006.885.025 1.328.043 1.02.049 2.038.128 3.064.243 6 .682 12.048 2.533 17.97 5.503 1.789.895 2.893 2.575 3.093 4.389.207-1.833-.534-3.683-2.002-4.9ZM50.3 24.573a43.56 43.56 0 0 0-3.064-.244 32.036 32.036 0 0 0-1.328-.042h-.073c-.468.012-.94.024-1.408.049-.995.048-1.99.127-2.985.243-6 .682-12.048 2.532-17.97 5.503a5.9 5.9 0 0 0-.764.456c.65-1.978 1.608-3.908 2.816-5.715a27.237 27.237 0 0 1 2.996-3.72c4.563-4.754 10.908-8.022 17.333-8.022 6.321 0 12.558 3.159 17.102 7.785a27.163 27.163 0 0 1 3.215 3.944c1.207 1.802 2.166 3.726 2.815 5.704a6.003 6.003 0 0 0-.716-.426c-5.92-2.977-11.97-4.827-17.97-5.515Z" fill="#000"/><path d="M66.181 24.805c-4.592-2.216-9.555-3.598-14.766-4.11-4.301-.425-8.773-.261-13.304.482-6.516 1.07-11.242 3.043-12.583 3.646a27.706 27.706 0 0 1 2.997-3.72 59.317 59.317 0 0 1 9.197-2.282c4.732-.78 9.416-.944 13.923-.5 3.92.39 7.705 1.243 11.315 2.551a26.108 26.108 0 0 1 3.221 3.933ZM29.15 41.057c-.14.073-.285.14-.424.213a5.321 5.321 0 0 1-.917.365c-2.396-4.949-2.79-8.857-2.73-11.151a53.743 53.743 0 0 1 1.499-.67 15.48 15.48 0 0 0 .006 2.32c.146 1.977.71 5.106 2.566 8.923Zm7.529-2.91a46.51 46.51 0 0 0-1.407.426c-2.184-5.302-2.373-9.082-2.233-11.103a50.56 50.56 0 0 1 1.505-.414c-.067.56-.116 1.388-.049 2.472.121 1.844.595 4.796 2.184 8.619Zm7.777-1.364c-.018 0-.03 0-.048.006-.468.031-.94.074-1.408.122l-.619-11.236c.486-.043.971-.085 1.456-.11l.62 11.218Zm8.288-10.67c-.03.974-.11 2.97-.267 5.076-.25 3.294-.558 5.12-.831 6.154-.48-.09-.965-.17-1.444-.243.63-2.234.989-7.627 1.086-11.206.485.067.97.14 1.456.219Zm6.151 13.337c1.644-3.056 1.765-8.407 1.692-11.377a41.938 41.938 0 0 0-1.48-.469c.097 2.752.073 8.492-1.595 11.334l1.383.511Zm9.039-6.495c0 2.319-.333 5.667-1.838 8.911a6.1 6.1 0 0 1-1.583-.085c2.184-4.28 2.08-8.96 1.814-11.444.515.238 1.025.481 1.54.73.043.573.067 1.206.067 1.888Z" fill="#EDF2F4"/><path d="M80.365 69.683h-69.73c-5.636 0-10.217-4.601-10.217-10.25v-3.622c0-5.655 4.587-10.25 10.217-10.25h69.724c5.636 0 10.216 4.602 10.216 10.25v3.622c.006 5.655-4.58 10.25-10.21 10.25Zm-69.73-22.46c-4.72 0-8.56 3.853-8.56 8.588v3.622c0 4.736 3.84 8.589 8.56 8.589h69.724c4.72 0 8.56-3.853 8.56-8.589v-3.622c0-4.735-3.84-8.589-8.56-8.589H10.635Z" fill="#2B2D42"/><path d="M89.022 55.811v3.622c0 4.736-3.84 8.589-8.56 8.589h-69.73c-4.72 0-8.56-3.853-8.56-8.589v-3.622c0-4.735 3.84-8.588 8.56-8.588h69.724c4.726 0 8.566 3.853 8.566 8.588Z" fill="#219EBC"/><path d="M18.26 60.906v3.013H9.313V51.325h8.791v3.013h-5.339v1.771h4.563v2.807h-4.563V60.9h5.497v.006Zm1.608 3.014V51.324h3.446v9.581h5.697v3.013h-9.143Zm10.344 0V51.324h3.446V63.92h-3.446Zm15.385-9.582h-3.61v9.581h-3.445v-9.58H34.92v-3.014h10.677v3.013Zm12.358-3.013V63.92h-3.446v-4.93H50.3v4.93h-3.446V51.325H50.3v4.65h4.21v-4.65h3.446Zm5.06 0h3.852l3.998 12.594h-3.5l-.65-2.465h-3.549l-.649 2.465h-3.519l4.017-12.594Zm3.094 7.822-1.165-4.438-1.165 4.438h2.33Zm15.579-4.809h-3.61v9.581h-3.446v-9.58H71.01v-3.014h10.678v3.013Z" fill="#fff"/></g><defs><clipPath id="a"><path fill="#fff" d="M0 0h91v70H0z"/></clipPath></defs></svg>