<svg width="1920" height="910" fill="none" xmlns="http://www.w3.org/2000/svg"><path fill="#DCD8D1" d="M0 0h1920v910H0z"/><path d="M1318 796c-26.4 58-99 98.833-132 112h734V608c-43 16.5-141.5 107.5-190 109.5s-84.5-72-109-90.5-83.5-44.5-160-24-110 120.5-143 193ZM200.5 543c-80-19.6-167.333-11.167-201-4.5V909h852c-11-5.833-41.4-21.3-75-36.5-42-19-195-57-260.5-96.5s-84-72-124.5-116.5c-69.736-76.624-91-92-191-116.5Z" fill="#219EBC" stroke="#219EBC"/><path d="M1233 908c-5.33-15-11.2-47.9 8-59.5 24-14.5 57.5-5.5 69-28.5s3-45 4.5-65.5 35.5-45.5 77.5-35 90.5 66 140 70 102.5-13.5 141.5-61 77.5-54 101.5-34.5 24 54.5 0 61.5-72-19.5-40-94 147-88 183.5-59" stroke="#30BC21" stroke-width="12"/><path d="M-1.5 477c9-3.167 29.4-4.9 39 13.5 12 23 15 66-12 117S25 719 75 732s62.5 34 64 53-13 57.5-38.5 49.5-21.5-38 0-49.5c17.217-9.209 52-12.5 87.5 11.5s48.5 55 45 111" stroke="#BC215F" stroke-width="12"/></svg>