<svg width="15" height="15" fill="none" xmlns="http://www.w3.org/2000/svg"><path fill-rule="evenodd" clip-rule="evenodd" d="M10.454.167a2.188 2.188 0 0 1 1.675 0c.24.1.436.245.614.4.168.147.357.336.573.552l.565.565c.216.216.405.405.552.573.155.178.3.374.4.614a2.188 2.188 0 0 1 0 1.675c-.1.24-.245.437-.4.615-.146.168-.336.357-.552.573l-6.589 6.59A9.14 9.14 0 0 1 .83 15a.83.83 0 0 1-.83-.83 9.14 9.14 0 0 1 2.677-6.462l6.59-6.59c.215-.215.404-.404.572-.551.178-.155.374-.3.615-.4Zm1.072 1.455a.613.613 0 0 0-.47 0 .744.744 0 0 0-.181.132 11.74 11.74 0 0 0-.512.496l-.409.408 2.387 2.388.409-.409c.238-.238.389-.39.496-.512a.743.743 0 0 0 .132-.182.613.613 0 0 0 0-.469.743.743 0 0 0-.132-.182 11.795 11.795 0 0 0-.496-.512l-.53-.53c-.239-.238-.39-.389-.513-.496a.744.744 0 0 0-.181-.132Zm-.299 4.538L8.84 3.773 3.79 8.822a7.564 7.564 0 0 0-2.173 4.562 7.565 7.565 0 0 0 4.561-2.175l5.05-5.05Z" fill="#1E1E1E"/></svg>