<svg width="300" height="120" fill="none" xmlns="http://www.w3.org/2000/svg"><rect x=".5" y=".5" width="299" height="119" rx="4.5" fill="#219EBC" stroke="#1E1E1E"/><path d="M121.725 66V54.8h5.008c1.258 0 2.24.25 2.944.752.704.49 1.056 1.2 1.056 2.128 0 .917-.336 1.627-1.008 2.128-.672.49-1.558.736-2.656.736l.288-.576c1.248 0 2.213.25 2.896.752.682.501 1.024 1.227 1.024 2.176 0 .97-.358 1.733-1.072 2.288-.715.544-1.771.816-3.168.816h-5.312Zm2.048-1.6h3.2c.725 0 1.274-.133 1.648-.4.373-.277.56-.699.56-1.264 0-.565-.187-.976-.56-1.232-.374-.267-.923-.4-1.648-.4h-3.2V64.4Zm0-4.816h2.784c.672 0 1.184-.133 1.536-.4.352-.277.528-.672.528-1.184 0-.533-.176-.933-.528-1.2-.352-.267-.864-.4-1.536-.4h-2.784v3.184Zm11.793-.128h5.568v1.712h-5.568v-1.712Zm.16 4.8h6.32V66h-8.4V54.8h8.176v1.744h-6.096v7.712Zm13.791 1.904a6.708 6.708 0 0 1-2.384-.416 5.956 5.956 0 0 1-1.904-1.2 5.633 5.633 0 0 1-1.248-1.84 5.833 5.833 0 0 1-.448-2.304c0-.832.149-1.6.448-2.304a5.34 5.34 0 0 1 1.264-1.824 5.609 5.609 0 0 1 1.904-1.2 6.403 6.403 0 0 1 2.384-.432c.917 0 1.755.16 2.512.48a4.91 4.91 0 0 1 1.92 1.392l-1.344 1.264a3.968 3.968 0 0 0-1.36-.976 3.952 3.952 0 0 0-1.632-.336c-.587 0-1.125.096-1.616.288a3.85 3.85 0 0 0-1.264.816 3.882 3.882 0 0 0-.832 1.248 4.228 4.228 0 0 0-.288 1.584c0 .576.096 1.104.288 1.584.203.48.48.896.832 1.248a3.85 3.85 0 0 0 1.264.816 4.398 4.398 0 0 0 1.616.288c.587 0 1.131-.107 1.632-.32a4.07 4.07 0 0 0 1.36-1.008l1.344 1.28a5.129 5.129 0 0 1-1.92 1.392c-.757.32-1.6.48-2.528.48Zm14.251-11.36h2.08V66h-2.08V54.8ZM157.976 66h-2.08V54.8h2.08V66Zm5.952-4.8H157.8v-1.776h6.128V61.2Zm3.638 4.8 5.04-11.2h2.048L179.71 66h-2.176l-4.336-10.096h.832L169.71 66h-2.144Zm2.32-2.592.56-1.632h6.048l.56 1.632h-7.168Z" fill="#fff"/></svg>