<svg width="20" height="20" fill="none" xmlns="http://www.w3.org/2000/svg"><path d="M2.5 0A2.5 2.5 0 0 0 0 2.5v3.75a2.5 2.5 0 0 0 2.5 2.5h3.75a2.5 2.5 0 0 0 2.5-2.5V2.5A2.5 2.5 0 0 0 6.25 0H2.5Zm8.75 2.5a2.5 2.5 0 0 1 2.5-2.5h3.75A2.5 2.5 0 0 1 20 2.5v3.75a2.5 2.5 0 0 1-2.5 2.5h-3.75a2.5 2.5 0 0 1-2.5-2.5V2.5ZM2.5 1h3.75q.18 0 .35.04.12.03.234.077.12.052.229.122.133.086.248.2.114.115.2.248.07.109.122.23.048.114.076.232.041.17.041.351v3.75q0 .18-.04.35-.03.12-.077.234-.052.12-.122.229-.086.133-.2.248-.115.114-.248.2-.109.07-.23.122-.114.048-.232.076-.17.041-.351.041H2.5q-.18 0-.35-.04-.12-.03-.234-.077-.12-.051-.229-.122-.133-.086-.248-.2-.114-.115-.2-.248-.07-.109-.122-.23-.048-.114-.076-.232Q1 6.43 1 6.25V2.5q0-.18.04-.35.03-.12.077-.234.051-.12.122-.229.086-.133.2-.248.115-.114.248-.2.109-.07.23-.122.114-.048.232-.076Q2.32 1 2.5 1Zm11.25 0h3.75q.18 0 .35.04.12.03.234.077.12.051.229.122.133.086.248.2.114.115.2.248.07.109.122.23.048.114.076.232.041.17.041.351v3.75q0 .18-.04.35-.03.12-.077.234-.052.12-.121.229-.087.133-.201.248-.115.114-.248.2-.109.07-.23.122-.113.048-.232.076-.17.041-.351.041h-3.75q-.18 0-.35-.04-.12-.03-.234-.077-.12-.051-.229-.122-.133-.086-.248-.2-.114-.115-.2-.248-.07-.109-.122-.23-.048-.114-.076-.232-.041-.17-.041-.351V2.5q0-.18.04-.35.03-.12.077-.234.052-.12.121-.229.087-.133.201-.248.115-.114.248-.2.109-.07.23-.122.114-.048.232-.076Q13.57 1 13.75 1ZM2.5 11.25a2.5 2.5 0 0 0-2.5 2.5v3.75A2.5 2.5 0 0 0 2.5 20h3.75a2.5 2.5 0 0 0 2.5-2.5v-3.75a2.5 2.5 0 0 0-2.5-2.5H2.5Zm0 1h3.75q.18 0 .35.04.12.03.234.077.12.052.229.121.133.087.248.201.114.115.2.248.07.109.122.23.048.114.076.232.041.17.041.351v3.75q0 .18-.04.35-.03.12-.077.234-.051.12-.122.229-.086.133-.2.248-.115.114-.248.2-.109.07-.23.122-.114.048-.232.076Q6.43 19 6.25 19H2.5q-.18 0-.35-.04-.12-.03-.234-.077-.12-.052-.229-.121-.133-.087-.248-.201-.114-.115-.2-.248-.07-.109-.122-.23-.048-.113-.076-.232Q1 17.68 1 17.5v-3.75q0-.18.04-.35.03-.12.077-.234.051-.12.122-.229.086-.133.2-.248.115-.114.248-.2.109-.07.23-.122.114-.048.232-.076.17-.041.351-.041Z" fill="#FFF" fill-rule="evenodd"/></svg>