<svg width="300" height="120" fill="none" xmlns="http://www.w3.org/2000/svg"><rect x=".5" y=".5" width="299" height="119" rx="4.5" fill="#219EBC" stroke="#1E1E1E"/><path d="M130.751 66.16c-.182 0-.363-.016-.544-.048-.182-.032-.379-.07-.592-.112l.144-1.808c.149.043.309.064.48.064.448 0 .805-.181 1.072-.544.266-.373.458-.917.576-1.632.117-.715.197-1.595.24-2.64l.16-4.64h8.24V66h-2.048v-9.952l.48.512h-5.328l.448-.528-.112 3.328a27.253 27.253 0 0 1-.224 2.928c-.118.843-.299 1.552-.544 2.128-.235.565-.55.997-.944 1.296-.395.299-.896.448-1.504.448Zm12.942-.16V54.8h2.048V66h-2.048Zm7.555 0v-9.952l.496.512h-4.192V54.8h9.472v1.76h-4.192l.48-.512V66h-2.064Zm12.614.16c-.875 0-1.68-.144-2.416-.432a5.911 5.911 0 0 1-1.92-1.2 5.54 5.54 0 0 1-1.264-1.824 5.833 5.833 0 0 1-.448-2.304c0-.832.149-1.595.448-2.288a5.327 5.327 0 0 1 1.264-1.824 5.775 5.775 0 0 1 1.92-1.216 6.53 6.53 0 0 1 2.4-.432c.874 0 1.674.144 2.4.432a5.775 5.775 0 0 1 1.92 1.216 5.34 5.34 0 0 1 1.264 1.824c.298.693.448 1.456.448 2.288 0 .832-.15 1.6-.448 2.304a5.34 5.34 0 0 1-1.264 1.824 5.911 5.911 0 0 1-1.92 1.2 6.407 6.407 0 0 1-2.384.432Zm-.016-1.824c.565 0 1.088-.096 1.568-.288.48-.192.896-.464 1.248-.816.352-.363.624-.779.816-1.248.202-.48.304-1.008.304-1.584 0-.576-.102-1.099-.304-1.568a3.671 3.671 0 0 0-.816-1.248 3.56 3.56 0 0 0-1.248-.832 4.185 4.185 0 0 0-1.568-.288c-.566 0-1.088.096-1.568.288-.47.192-.886.47-1.248.832-.352.352-.63.768-.832 1.248-.192.47-.288.992-.288 1.568 0 .565.096 1.088.288 1.568.202.48.48.901.832 1.264.352.352.768.624 1.248.816.48.192 1.002.288 1.568.288Z" fill="#fff"/></svg>