<svg width="300" height="120" fill="none" xmlns="http://www.w3.org/2000/svg"><rect x=".5" y=".5" width="299" height="119" rx="4.5" fill="#219EBC" stroke="#1E1E1E"/><path d="m124.769 64.896.672-1.52a5.94 5.94 0 0 0 1.568.768 6.43 6.43 0 0 0 1.712.272 4.97 4.97 0 0 0 1.536-.192c.469-.139.842-.347 1.12-.624.277-.277.416-.624.416-1.04 0-.501-.208-.875-.624-1.12-.406-.256-.96-.384-1.664-.384h-2.608v-1.632h2.448c.629 0 1.114-.128 1.456-.384a1.22 1.22 0 0 0 .528-1.04c0-.363-.118-.661-.352-.896-.224-.235-.534-.41-.928-.528a4.178 4.178 0 0 0-1.312-.16c-.48 0-.982.075-1.504.224a5.864 5.864 0 0 0-1.488.624l-.656-1.68a8.14 8.14 0 0 1 4.464-.912c.725.064 1.376.23 1.952.496.586.267 1.056.619 1.408 1.056.352.427.528.933.528 1.52 0 .533-.144 1.008-.432 1.424-.278.405-.662.72-1.152.944-.491.224-1.062.336-1.712.336l.08-.512c.736 0 1.376.128 1.92.384.554.245.981.587 1.28 1.024.309.437.464.944.464 1.52 0 .544-.139 1.03-.416 1.456a3.508 3.508 0 0 1-1.136 1.056c-.48.277-1.03.485-1.648.624a7.805 7.805 0 0 1-1.952.144 8.578 8.578 0 0 1-2.048-.352 7.48 7.48 0 0 1-1.92-.896ZM136.279 66V54.8h2.048v7.952l6.016-7.952h1.936V66h-2.048v-7.936L138.215 66h-1.936Zm13.157 0V54.8h1.696l4.912 8.176h-.912l4.832-8.176h1.696l.032 11.2h-1.984l-.016-8.112h.416l-4.096 6.832h-.928l-4.16-6.832h.48V66h-1.968Zm13.966 0 5.04-11.2h2.048l5.056 11.2h-2.176l-4.336-10.096h.832L165.546 66h-2.144Zm2.32-2.592.56-1.632h6.048l.56 1.632h-7.168Z" fill="#fff"/></svg>